%TF.GenerationSoftware,KiCad,Pcbnew,8.0.4*%
%TF.CreationDate,2024-10-16T15:26:13-05:00*%
%TF.ProjectId,mic_dual_circuit,6d69635f-6475-4616-9c5f-636972637569,rev?*%
%TF.SameCoordinates,Original*%
%TF.FileFunction,Legend,Bot*%
%TF.FilePolarity,Positive*%
%FSLAX46Y46*%
G04 Gerber Fmt 4.6, Leading zero omitted, Abs format (unit mm)*
G04 Created by KiCad (PCBNEW 8.0.4) date 2024-10-16 15:26:13*
%MOMM*%
%LPD*%
G01*
G04 APERTURE LIST*
%ADD10C,0.100000*%
%ADD11C,0.300000*%
G04 APERTURE END LIST*
D10*
X93171287Y-20906800D02*
X93095096Y-20954419D01*
X93095096Y-20954419D02*
X92942715Y-20954419D01*
X92942715Y-20954419D02*
X92866525Y-20906800D01*
X92866525Y-20906800D02*
X92828429Y-20811561D01*
X92828429Y-20811561D02*
X92828429Y-20763942D01*
X92828429Y-20763942D02*
X92866525Y-20668704D01*
X92866525Y-20668704D02*
X92942715Y-20621085D01*
X92942715Y-20621085D02*
X93057001Y-20621085D01*
X93057001Y-20621085D02*
X93133191Y-20573466D01*
X93133191Y-20573466D02*
X93171287Y-20478228D01*
X93171287Y-20478228D02*
X93171287Y-20430609D01*
X93171287Y-20430609D02*
X93133191Y-20335371D01*
X93133191Y-20335371D02*
X93057001Y-20287752D01*
X93057001Y-20287752D02*
X92942715Y-20287752D01*
X92942715Y-20287752D02*
X92866525Y-20335371D01*
X92142715Y-20906800D02*
X92218906Y-20954419D01*
X92218906Y-20954419D02*
X92371287Y-20954419D01*
X92371287Y-20954419D02*
X92447477Y-20906800D01*
X92447477Y-20906800D02*
X92485572Y-20859180D01*
X92485572Y-20859180D02*
X92523668Y-20763942D01*
X92523668Y-20763942D02*
X92523668Y-20478228D01*
X92523668Y-20478228D02*
X92485572Y-20382990D01*
X92485572Y-20382990D02*
X92447477Y-20335371D01*
X92447477Y-20335371D02*
X92371287Y-20287752D01*
X92371287Y-20287752D02*
X92218906Y-20287752D01*
X92218906Y-20287752D02*
X92142715Y-20335371D01*
X91799858Y-20954419D02*
X91799858Y-19954419D01*
X91723668Y-20573466D02*
X91495096Y-20954419D01*
X91495096Y-20287752D02*
X91799858Y-20668704D01*
X82763677Y-20287752D02*
X82763677Y-21097276D01*
X82763677Y-21097276D02*
X82801772Y-21192514D01*
X82801772Y-21192514D02*
X82839868Y-21240133D01*
X82839868Y-21240133D02*
X82916058Y-21287752D01*
X82916058Y-21287752D02*
X83030344Y-21287752D01*
X83030344Y-21287752D02*
X83106534Y-21240133D01*
X82763677Y-20906800D02*
X82839868Y-20954419D01*
X82839868Y-20954419D02*
X82992249Y-20954419D01*
X82992249Y-20954419D02*
X83068439Y-20906800D01*
X83068439Y-20906800D02*
X83106534Y-20859180D01*
X83106534Y-20859180D02*
X83144630Y-20763942D01*
X83144630Y-20763942D02*
X83144630Y-20478228D01*
X83144630Y-20478228D02*
X83106534Y-20382990D01*
X83106534Y-20382990D02*
X83068439Y-20335371D01*
X83068439Y-20335371D02*
X82992249Y-20287752D01*
X82992249Y-20287752D02*
X82839868Y-20287752D01*
X82839868Y-20287752D02*
X82763677Y-20335371D01*
X82382724Y-20287752D02*
X82382724Y-20954419D01*
X82382724Y-20382990D02*
X82344629Y-20335371D01*
X82344629Y-20335371D02*
X82268439Y-20287752D01*
X82268439Y-20287752D02*
X82154153Y-20287752D01*
X82154153Y-20287752D02*
X82077962Y-20335371D01*
X82077962Y-20335371D02*
X82039867Y-20430609D01*
X82039867Y-20430609D02*
X82039867Y-20954419D01*
X81316057Y-20954419D02*
X81316057Y-19954419D01*
X81316057Y-20906800D02*
X81392248Y-20954419D01*
X81392248Y-20954419D02*
X81544629Y-20954419D01*
X81544629Y-20954419D02*
X81620819Y-20906800D01*
X81620819Y-20906800D02*
X81658914Y-20859180D01*
X81658914Y-20859180D02*
X81697010Y-20763942D01*
X81697010Y-20763942D02*
X81697010Y-20478228D01*
X81697010Y-20478228D02*
X81658914Y-20382990D01*
X81658914Y-20382990D02*
X81620819Y-20335371D01*
X81620819Y-20335371D02*
X81544629Y-20287752D01*
X81544629Y-20287752D02*
X81392248Y-20287752D01*
X81392248Y-20287752D02*
X81316057Y-20335371D01*
X85632245Y-20287752D02*
X85632245Y-21287752D01*
X85632245Y-20335371D02*
X85556055Y-20287752D01*
X85556055Y-20287752D02*
X85403674Y-20287752D01*
X85403674Y-20287752D02*
X85327483Y-20335371D01*
X85327483Y-20335371D02*
X85289388Y-20382990D01*
X85289388Y-20382990D02*
X85251293Y-20478228D01*
X85251293Y-20478228D02*
X85251293Y-20763942D01*
X85251293Y-20763942D02*
X85289388Y-20859180D01*
X85289388Y-20859180D02*
X85327483Y-20906800D01*
X85327483Y-20906800D02*
X85403674Y-20954419D01*
X85403674Y-20954419D02*
X85556055Y-20954419D01*
X85556055Y-20954419D02*
X85632245Y-20906800D01*
X84984626Y-20287752D02*
X84832245Y-20954419D01*
X84832245Y-20954419D02*
X84679864Y-20478228D01*
X84679864Y-20478228D02*
X84527483Y-20954419D01*
X84527483Y-20954419D02*
X84375102Y-20287752D01*
X84070340Y-20954419D02*
X84070340Y-20287752D01*
X84070340Y-20478228D02*
X84032245Y-20382990D01*
X84032245Y-20382990D02*
X83994150Y-20335371D01*
X83994150Y-20335371D02*
X83917959Y-20287752D01*
X83917959Y-20287752D02*
X83841769Y-20287752D01*
X88386529Y-20954419D02*
X88386529Y-19954419D01*
X88386529Y-20906800D02*
X88462720Y-20954419D01*
X88462720Y-20954419D02*
X88615101Y-20954419D01*
X88615101Y-20954419D02*
X88691291Y-20906800D01*
X88691291Y-20906800D02*
X88729386Y-20859180D01*
X88729386Y-20859180D02*
X88767482Y-20763942D01*
X88767482Y-20763942D02*
X88767482Y-20478228D01*
X88767482Y-20478228D02*
X88729386Y-20382990D01*
X88729386Y-20382990D02*
X88691291Y-20335371D01*
X88691291Y-20335371D02*
X88615101Y-20287752D01*
X88615101Y-20287752D02*
X88462720Y-20287752D01*
X88462720Y-20287752D02*
X88386529Y-20335371D01*
X87662719Y-20954419D02*
X87662719Y-20430609D01*
X87662719Y-20430609D02*
X87700814Y-20335371D01*
X87700814Y-20335371D02*
X87777005Y-20287752D01*
X87777005Y-20287752D02*
X87929386Y-20287752D01*
X87929386Y-20287752D02*
X88005576Y-20335371D01*
X87662719Y-20906800D02*
X87738910Y-20954419D01*
X87738910Y-20954419D02*
X87929386Y-20954419D01*
X87929386Y-20954419D02*
X88005576Y-20906800D01*
X88005576Y-20906800D02*
X88043672Y-20811561D01*
X88043672Y-20811561D02*
X88043672Y-20716323D01*
X88043672Y-20716323D02*
X88005576Y-20621085D01*
X88005576Y-20621085D02*
X87929386Y-20573466D01*
X87929386Y-20573466D02*
X87738910Y-20573466D01*
X87738910Y-20573466D02*
X87662719Y-20525847D01*
X87396052Y-20287752D02*
X87091290Y-20287752D01*
X87281766Y-19954419D02*
X87281766Y-20811561D01*
X87281766Y-20811561D02*
X87243671Y-20906800D01*
X87243671Y-20906800D02*
X87167481Y-20954419D01*
X87167481Y-20954419D02*
X87091290Y-20954419D01*
X86481766Y-20954419D02*
X86481766Y-20430609D01*
X86481766Y-20430609D02*
X86519861Y-20335371D01*
X86519861Y-20335371D02*
X86596052Y-20287752D01*
X86596052Y-20287752D02*
X86748433Y-20287752D01*
X86748433Y-20287752D02*
X86824623Y-20335371D01*
X86481766Y-20906800D02*
X86557957Y-20954419D01*
X86557957Y-20954419D02*
X86748433Y-20954419D01*
X86748433Y-20954419D02*
X86824623Y-20906800D01*
X86824623Y-20906800D02*
X86862719Y-20811561D01*
X86862719Y-20811561D02*
X86862719Y-20716323D01*
X86862719Y-20716323D02*
X86824623Y-20621085D01*
X86824623Y-20621085D02*
X86748433Y-20573466D01*
X86748433Y-20573466D02*
X86557957Y-20573466D01*
X86557957Y-20573466D02*
X86481766Y-20525847D01*
X90759859Y-20287752D02*
X90607478Y-20954419D01*
X90607478Y-20954419D02*
X90455097Y-20478228D01*
X90455097Y-20478228D02*
X90302716Y-20954419D01*
X90302716Y-20954419D02*
X90150335Y-20287752D01*
X89883669Y-20906800D02*
X89807478Y-20954419D01*
X89807478Y-20954419D02*
X89655097Y-20954419D01*
X89655097Y-20954419D02*
X89578907Y-20906800D01*
X89578907Y-20906800D02*
X89540811Y-20811561D01*
X89540811Y-20811561D02*
X89540811Y-20763942D01*
X89540811Y-20763942D02*
X89578907Y-20668704D01*
X89578907Y-20668704D02*
X89655097Y-20621085D01*
X89655097Y-20621085D02*
X89769383Y-20621085D01*
X89769383Y-20621085D02*
X89845573Y-20573466D01*
X89845573Y-20573466D02*
X89883669Y-20478228D01*
X89883669Y-20478228D02*
X89883669Y-20430609D01*
X89883669Y-20430609D02*
X89845573Y-20335371D01*
X89845573Y-20335371D02*
X89769383Y-20287752D01*
X89769383Y-20287752D02*
X89655097Y-20287752D01*
X89655097Y-20287752D02*
X89578907Y-20335371D01*
X93980000Y-21539200D02*
X93980000Y-170637200D01*
X80822800Y-21488400D02*
X80822800Y-170586400D01*
X84328000Y-126134967D02*
X90831833Y-126134967D01*
X90831833Y-129895600D01*
X84328000Y-129895600D01*
X84328000Y-126134967D01*
X84175600Y-45972567D02*
X90679433Y-45972567D01*
X90679433Y-49733200D01*
X84175600Y-49733200D01*
X84175600Y-45972567D01*
X89164032Y-89037713D02*
X89092603Y-88823428D01*
X89092603Y-88823428D02*
X89092603Y-88466285D01*
X89092603Y-88466285D02*
X89164032Y-88323428D01*
X89164032Y-88323428D02*
X89235460Y-88251999D01*
X89235460Y-88251999D02*
X89378317Y-88180570D01*
X89378317Y-88180570D02*
X89521174Y-88180570D01*
X89521174Y-88180570D02*
X89664032Y-88251999D01*
X89664032Y-88251999D02*
X89735460Y-88323428D01*
X89735460Y-88323428D02*
X89806889Y-88466285D01*
X89806889Y-88466285D02*
X89878317Y-88751999D01*
X89878317Y-88751999D02*
X89949746Y-88894856D01*
X89949746Y-88894856D02*
X90021174Y-88966285D01*
X90021174Y-88966285D02*
X90164032Y-89037713D01*
X90164032Y-89037713D02*
X90306889Y-89037713D01*
X90306889Y-89037713D02*
X90449746Y-88966285D01*
X90449746Y-88966285D02*
X90521174Y-88894856D01*
X90521174Y-88894856D02*
X90592603Y-88751999D01*
X90592603Y-88751999D02*
X90592603Y-88394856D01*
X90592603Y-88394856D02*
X90521174Y-88180570D01*
X90092603Y-87751999D02*
X90092603Y-87180571D01*
X90592603Y-87537714D02*
X89306889Y-87537714D01*
X89306889Y-87537714D02*
X89164032Y-87466285D01*
X89164032Y-87466285D02*
X89092603Y-87323428D01*
X89092603Y-87323428D02*
X89092603Y-87180571D01*
X89164032Y-86109142D02*
X89092603Y-86251999D01*
X89092603Y-86251999D02*
X89092603Y-86537714D01*
X89092603Y-86537714D02*
X89164032Y-86680571D01*
X89164032Y-86680571D02*
X89306889Y-86751999D01*
X89306889Y-86751999D02*
X89878317Y-86751999D01*
X89878317Y-86751999D02*
X90021174Y-86680571D01*
X90021174Y-86680571D02*
X90092603Y-86537714D01*
X90092603Y-86537714D02*
X90092603Y-86251999D01*
X90092603Y-86251999D02*
X90021174Y-86109142D01*
X90021174Y-86109142D02*
X89878317Y-86037714D01*
X89878317Y-86037714D02*
X89735460Y-86037714D01*
X89735460Y-86037714D02*
X89592603Y-86751999D01*
X89092603Y-85394857D02*
X90092603Y-85394857D01*
X89806889Y-85394857D02*
X89949746Y-85323428D01*
X89949746Y-85323428D02*
X90021174Y-85252000D01*
X90021174Y-85252000D02*
X90092603Y-85109142D01*
X90092603Y-85109142D02*
X90092603Y-84966285D01*
X89164032Y-83894857D02*
X89092603Y-84037714D01*
X89092603Y-84037714D02*
X89092603Y-84323429D01*
X89092603Y-84323429D02*
X89164032Y-84466286D01*
X89164032Y-84466286D02*
X89306889Y-84537714D01*
X89306889Y-84537714D02*
X89878317Y-84537714D01*
X89878317Y-84537714D02*
X90021174Y-84466286D01*
X90021174Y-84466286D02*
X90092603Y-84323429D01*
X90092603Y-84323429D02*
X90092603Y-84037714D01*
X90092603Y-84037714D02*
X90021174Y-83894857D01*
X90021174Y-83894857D02*
X89878317Y-83823429D01*
X89878317Y-83823429D02*
X89735460Y-83823429D01*
X89735460Y-83823429D02*
X89592603Y-84537714D01*
X89092603Y-82966286D02*
X89164032Y-83109143D01*
X89164032Y-83109143D02*
X89235460Y-83180572D01*
X89235460Y-83180572D02*
X89378317Y-83252000D01*
X89378317Y-83252000D02*
X89806889Y-83252000D01*
X89806889Y-83252000D02*
X89949746Y-83180572D01*
X89949746Y-83180572D02*
X90021174Y-83109143D01*
X90021174Y-83109143D02*
X90092603Y-82966286D01*
X90092603Y-82966286D02*
X90092603Y-82752000D01*
X90092603Y-82752000D02*
X90021174Y-82609143D01*
X90021174Y-82609143D02*
X89949746Y-82537715D01*
X89949746Y-82537715D02*
X89806889Y-82466286D01*
X89806889Y-82466286D02*
X89378317Y-82466286D01*
X89378317Y-82466286D02*
X89235460Y-82537715D01*
X89235460Y-82537715D02*
X89164032Y-82609143D01*
X89164032Y-82609143D02*
X89092603Y-82752000D01*
X89092603Y-82752000D02*
X89092603Y-82966286D01*
X89092603Y-80680572D02*
X90592603Y-80680572D01*
X90592603Y-80680572D02*
X89521174Y-80180572D01*
X89521174Y-80180572D02*
X90592603Y-79680572D01*
X90592603Y-79680572D02*
X89092603Y-79680572D01*
X89092603Y-78966286D02*
X90092603Y-78966286D01*
X90592603Y-78966286D02*
X90521174Y-79037714D01*
X90521174Y-79037714D02*
X90449746Y-78966286D01*
X90449746Y-78966286D02*
X90521174Y-78894857D01*
X90521174Y-78894857D02*
X90592603Y-78966286D01*
X90592603Y-78966286D02*
X90449746Y-78966286D01*
X89164032Y-77609143D02*
X89092603Y-77752000D01*
X89092603Y-77752000D02*
X89092603Y-78037714D01*
X89092603Y-78037714D02*
X89164032Y-78180571D01*
X89164032Y-78180571D02*
X89235460Y-78252000D01*
X89235460Y-78252000D02*
X89378317Y-78323428D01*
X89378317Y-78323428D02*
X89806889Y-78323428D01*
X89806889Y-78323428D02*
X89949746Y-78252000D01*
X89949746Y-78252000D02*
X90021174Y-78180571D01*
X90021174Y-78180571D02*
X90092603Y-78037714D01*
X90092603Y-78037714D02*
X90092603Y-77752000D01*
X90092603Y-77752000D02*
X90021174Y-77609143D01*
X89878317Y-75323429D02*
X89806889Y-75109143D01*
X89806889Y-75109143D02*
X89735460Y-75037714D01*
X89735460Y-75037714D02*
X89592603Y-74966286D01*
X89592603Y-74966286D02*
X89378317Y-74966286D01*
X89378317Y-74966286D02*
X89235460Y-75037714D01*
X89235460Y-75037714D02*
X89164032Y-75109143D01*
X89164032Y-75109143D02*
X89092603Y-75252000D01*
X89092603Y-75252000D02*
X89092603Y-75823429D01*
X89092603Y-75823429D02*
X90592603Y-75823429D01*
X90592603Y-75823429D02*
X90592603Y-75323429D01*
X90592603Y-75323429D02*
X90521174Y-75180572D01*
X90521174Y-75180572D02*
X90449746Y-75109143D01*
X90449746Y-75109143D02*
X90306889Y-75037714D01*
X90306889Y-75037714D02*
X90164032Y-75037714D01*
X90164032Y-75037714D02*
X90021174Y-75109143D01*
X90021174Y-75109143D02*
X89949746Y-75180572D01*
X89949746Y-75180572D02*
X89878317Y-75323429D01*
X89878317Y-75323429D02*
X89878317Y-75823429D01*
X89092603Y-74109143D02*
X89164032Y-74252000D01*
X89164032Y-74252000D02*
X89235460Y-74323429D01*
X89235460Y-74323429D02*
X89378317Y-74394857D01*
X89378317Y-74394857D02*
X89806889Y-74394857D01*
X89806889Y-74394857D02*
X89949746Y-74323429D01*
X89949746Y-74323429D02*
X90021174Y-74252000D01*
X90021174Y-74252000D02*
X90092603Y-74109143D01*
X90092603Y-74109143D02*
X90092603Y-73894857D01*
X90092603Y-73894857D02*
X90021174Y-73752000D01*
X90021174Y-73752000D02*
X89949746Y-73680572D01*
X89949746Y-73680572D02*
X89806889Y-73609143D01*
X89806889Y-73609143D02*
X89378317Y-73609143D01*
X89378317Y-73609143D02*
X89235460Y-73680572D01*
X89235460Y-73680572D02*
X89164032Y-73752000D01*
X89164032Y-73752000D02*
X89092603Y-73894857D01*
X89092603Y-73894857D02*
X89092603Y-74109143D01*
X89092603Y-72323429D02*
X89878317Y-72323429D01*
X89878317Y-72323429D02*
X90021174Y-72394857D01*
X90021174Y-72394857D02*
X90092603Y-72537714D01*
X90092603Y-72537714D02*
X90092603Y-72823429D01*
X90092603Y-72823429D02*
X90021174Y-72966286D01*
X89164032Y-72323429D02*
X89092603Y-72466286D01*
X89092603Y-72466286D02*
X89092603Y-72823429D01*
X89092603Y-72823429D02*
X89164032Y-72966286D01*
X89164032Y-72966286D02*
X89306889Y-73037714D01*
X89306889Y-73037714D02*
X89449746Y-73037714D01*
X89449746Y-73037714D02*
X89592603Y-72966286D01*
X89592603Y-72966286D02*
X89664032Y-72823429D01*
X89664032Y-72823429D02*
X89664032Y-72466286D01*
X89664032Y-72466286D02*
X89735460Y-72323429D01*
X89092603Y-71609143D02*
X90092603Y-71609143D01*
X89806889Y-71609143D02*
X89949746Y-71537714D01*
X89949746Y-71537714D02*
X90021174Y-71466286D01*
X90021174Y-71466286D02*
X90092603Y-71323428D01*
X90092603Y-71323428D02*
X90092603Y-71180571D01*
X89092603Y-70037715D02*
X90592603Y-70037715D01*
X89164032Y-70037715D02*
X89092603Y-70180572D01*
X89092603Y-70180572D02*
X89092603Y-70466286D01*
X89092603Y-70466286D02*
X89164032Y-70609143D01*
X89164032Y-70609143D02*
X89235460Y-70680572D01*
X89235460Y-70680572D02*
X89378317Y-70752000D01*
X89378317Y-70752000D02*
X89806889Y-70752000D01*
X89806889Y-70752000D02*
X89949746Y-70680572D01*
X89949746Y-70680572D02*
X90021174Y-70609143D01*
X90021174Y-70609143D02*
X90092603Y-70466286D01*
X90092603Y-70466286D02*
X90092603Y-70180572D01*
X90092603Y-70180572D02*
X90021174Y-70037715D01*
X86677687Y-86680571D02*
X88177687Y-86680571D01*
X88177687Y-86680571D02*
X87106258Y-86180571D01*
X87106258Y-86180571D02*
X88177687Y-85680571D01*
X88177687Y-85680571D02*
X86677687Y-85680571D01*
X88177687Y-84966285D02*
X86963401Y-84966285D01*
X86963401Y-84966285D02*
X86820544Y-84894856D01*
X86820544Y-84894856D02*
X86749116Y-84823428D01*
X86749116Y-84823428D02*
X86677687Y-84680570D01*
X86677687Y-84680570D02*
X86677687Y-84394856D01*
X86677687Y-84394856D02*
X86749116Y-84251999D01*
X86749116Y-84251999D02*
X86820544Y-84180570D01*
X86820544Y-84180570D02*
X86963401Y-84109142D01*
X86963401Y-84109142D02*
X88177687Y-84109142D01*
X87106258Y-83466284D02*
X87106258Y-82751999D01*
X86677687Y-83609141D02*
X88177687Y-83109141D01*
X88177687Y-83109141D02*
X86677687Y-82609141D01*
X86749116Y-82180570D02*
X86677687Y-81966285D01*
X86677687Y-81966285D02*
X86677687Y-81609142D01*
X86677687Y-81609142D02*
X86749116Y-81466285D01*
X86749116Y-81466285D02*
X86820544Y-81394856D01*
X86820544Y-81394856D02*
X86963401Y-81323427D01*
X86963401Y-81323427D02*
X87106258Y-81323427D01*
X87106258Y-81323427D02*
X87249116Y-81394856D01*
X87249116Y-81394856D02*
X87320544Y-81466285D01*
X87320544Y-81466285D02*
X87391973Y-81609142D01*
X87391973Y-81609142D02*
X87463401Y-81894856D01*
X87463401Y-81894856D02*
X87534830Y-82037713D01*
X87534830Y-82037713D02*
X87606258Y-82109142D01*
X87606258Y-82109142D02*
X87749116Y-82180570D01*
X87749116Y-82180570D02*
X87891973Y-82180570D01*
X87891973Y-82180570D02*
X88034830Y-82109142D01*
X88034830Y-82109142D02*
X88106258Y-82037713D01*
X88106258Y-82037713D02*
X88177687Y-81894856D01*
X88177687Y-81894856D02*
X88177687Y-81537713D01*
X88177687Y-81537713D02*
X88106258Y-81323427D01*
X86677687Y-79537714D02*
X88177687Y-79537714D01*
X88177687Y-79537714D02*
X88177687Y-78966285D01*
X88177687Y-78966285D02*
X88106258Y-78823428D01*
X88106258Y-78823428D02*
X88034830Y-78751999D01*
X88034830Y-78751999D02*
X87891973Y-78680571D01*
X87891973Y-78680571D02*
X87677687Y-78680571D01*
X87677687Y-78680571D02*
X87534830Y-78751999D01*
X87534830Y-78751999D02*
X87463401Y-78823428D01*
X87463401Y-78823428D02*
X87391973Y-78966285D01*
X87391973Y-78966285D02*
X87391973Y-79537714D01*
X86677687Y-78037714D02*
X87677687Y-78037714D01*
X87391973Y-78037714D02*
X87534830Y-77966285D01*
X87534830Y-77966285D02*
X87606258Y-77894857D01*
X87606258Y-77894857D02*
X87677687Y-77751999D01*
X87677687Y-77751999D02*
X87677687Y-77609142D01*
X86677687Y-76894857D02*
X86749116Y-77037714D01*
X86749116Y-77037714D02*
X86820544Y-77109143D01*
X86820544Y-77109143D02*
X86963401Y-77180571D01*
X86963401Y-77180571D02*
X87391973Y-77180571D01*
X87391973Y-77180571D02*
X87534830Y-77109143D01*
X87534830Y-77109143D02*
X87606258Y-77037714D01*
X87606258Y-77037714D02*
X87677687Y-76894857D01*
X87677687Y-76894857D02*
X87677687Y-76680571D01*
X87677687Y-76680571D02*
X87606258Y-76537714D01*
X87606258Y-76537714D02*
X87534830Y-76466286D01*
X87534830Y-76466286D02*
X87391973Y-76394857D01*
X87391973Y-76394857D02*
X86963401Y-76394857D01*
X86963401Y-76394857D02*
X86820544Y-76466286D01*
X86820544Y-76466286D02*
X86749116Y-76537714D01*
X86749116Y-76537714D02*
X86677687Y-76680571D01*
X86677687Y-76680571D02*
X86677687Y-76894857D01*
X87677687Y-75752000D02*
X86391973Y-75752000D01*
X86391973Y-75752000D02*
X86249116Y-75823428D01*
X86249116Y-75823428D02*
X86177687Y-75966285D01*
X86177687Y-75966285D02*
X86177687Y-76037714D01*
X88177687Y-75752000D02*
X88106258Y-75823428D01*
X88106258Y-75823428D02*
X88034830Y-75752000D01*
X88034830Y-75752000D02*
X88106258Y-75680571D01*
X88106258Y-75680571D02*
X88177687Y-75752000D01*
X88177687Y-75752000D02*
X88034830Y-75752000D01*
X86749116Y-74466285D02*
X86677687Y-74609142D01*
X86677687Y-74609142D02*
X86677687Y-74894857D01*
X86677687Y-74894857D02*
X86749116Y-75037714D01*
X86749116Y-75037714D02*
X86891973Y-75109142D01*
X86891973Y-75109142D02*
X87463401Y-75109142D01*
X87463401Y-75109142D02*
X87606258Y-75037714D01*
X87606258Y-75037714D02*
X87677687Y-74894857D01*
X87677687Y-74894857D02*
X87677687Y-74609142D01*
X87677687Y-74609142D02*
X87606258Y-74466285D01*
X87606258Y-74466285D02*
X87463401Y-74394857D01*
X87463401Y-74394857D02*
X87320544Y-74394857D01*
X87320544Y-74394857D02*
X87177687Y-75109142D01*
X86749116Y-73109143D02*
X86677687Y-73252000D01*
X86677687Y-73252000D02*
X86677687Y-73537714D01*
X86677687Y-73537714D02*
X86749116Y-73680571D01*
X86749116Y-73680571D02*
X86820544Y-73752000D01*
X86820544Y-73752000D02*
X86963401Y-73823428D01*
X86963401Y-73823428D02*
X87391973Y-73823428D01*
X87391973Y-73823428D02*
X87534830Y-73752000D01*
X87534830Y-73752000D02*
X87606258Y-73680571D01*
X87606258Y-73680571D02*
X87677687Y-73537714D01*
X87677687Y-73537714D02*
X87677687Y-73252000D01*
X87677687Y-73252000D02*
X87606258Y-73109143D01*
X87677687Y-72680571D02*
X87677687Y-72109143D01*
X88177687Y-72466286D02*
X86891973Y-72466286D01*
X86891973Y-72466286D02*
X86749116Y-72394857D01*
X86749116Y-72394857D02*
X86677687Y-72252000D01*
X86677687Y-72252000D02*
X86677687Y-72109143D01*
X84262771Y-87894857D02*
X85762771Y-87894857D01*
X84262771Y-87037714D02*
X85119914Y-87680571D01*
X85762771Y-87037714D02*
X84905628Y-87894857D01*
X84334200Y-85823428D02*
X84262771Y-85966285D01*
X84262771Y-85966285D02*
X84262771Y-86252000D01*
X84262771Y-86252000D02*
X84334200Y-86394857D01*
X84334200Y-86394857D02*
X84477057Y-86466285D01*
X84477057Y-86466285D02*
X85048485Y-86466285D01*
X85048485Y-86466285D02*
X85191342Y-86394857D01*
X85191342Y-86394857D02*
X85262771Y-86252000D01*
X85262771Y-86252000D02*
X85262771Y-85966285D01*
X85262771Y-85966285D02*
X85191342Y-85823428D01*
X85191342Y-85823428D02*
X85048485Y-85752000D01*
X85048485Y-85752000D02*
X84905628Y-85752000D01*
X84905628Y-85752000D02*
X84762771Y-86466285D01*
X85262771Y-85252000D02*
X84262771Y-84894857D01*
X84262771Y-84894857D02*
X85262771Y-84537714D01*
X84262771Y-83966286D02*
X85262771Y-83966286D01*
X85762771Y-83966286D02*
X85691342Y-84037714D01*
X85691342Y-84037714D02*
X85619914Y-83966286D01*
X85619914Y-83966286D02*
X85691342Y-83894857D01*
X85691342Y-83894857D02*
X85762771Y-83966286D01*
X85762771Y-83966286D02*
X85619914Y-83966286D01*
X85262771Y-83252000D02*
X84262771Y-83252000D01*
X85119914Y-83252000D02*
X85191342Y-83180571D01*
X85191342Y-83180571D02*
X85262771Y-83037714D01*
X85262771Y-83037714D02*
X85262771Y-82823428D01*
X85262771Y-82823428D02*
X85191342Y-82680571D01*
X85191342Y-82680571D02*
X85048485Y-82609143D01*
X85048485Y-82609143D02*
X84262771Y-82609143D01*
X84262771Y-80752000D02*
X85762771Y-80752000D01*
X85762771Y-80752000D02*
X84691342Y-80252000D01*
X84691342Y-80252000D02*
X85762771Y-79752000D01*
X85762771Y-79752000D02*
X84262771Y-79752000D01*
X84334200Y-78394857D02*
X84262771Y-78537714D01*
X84262771Y-78537714D02*
X84262771Y-78823428D01*
X84262771Y-78823428D02*
X84334200Y-78966285D01*
X84334200Y-78966285D02*
X84405628Y-79037714D01*
X84405628Y-79037714D02*
X84548485Y-79109142D01*
X84548485Y-79109142D02*
X84977057Y-79109142D01*
X84977057Y-79109142D02*
X85119914Y-79037714D01*
X85119914Y-79037714D02*
X85191342Y-78966285D01*
X85191342Y-78966285D02*
X85262771Y-78823428D01*
X85262771Y-78823428D02*
X85262771Y-78537714D01*
X85262771Y-78537714D02*
X85191342Y-78394857D01*
X84262771Y-77752000D02*
X85762771Y-77752000D01*
X84262771Y-76894857D02*
X85119914Y-77537714D01*
X85762771Y-76894857D02*
X84905628Y-77752000D01*
X84334200Y-75680571D02*
X84262771Y-75823428D01*
X84262771Y-75823428D02*
X84262771Y-76109143D01*
X84262771Y-76109143D02*
X84334200Y-76252000D01*
X84334200Y-76252000D02*
X84477057Y-76323428D01*
X84477057Y-76323428D02*
X85048485Y-76323428D01*
X85048485Y-76323428D02*
X85191342Y-76252000D01*
X85191342Y-76252000D02*
X85262771Y-76109143D01*
X85262771Y-76109143D02*
X85262771Y-75823428D01*
X85262771Y-75823428D02*
X85191342Y-75680571D01*
X85191342Y-75680571D02*
X85048485Y-75609143D01*
X85048485Y-75609143D02*
X84905628Y-75609143D01*
X84905628Y-75609143D02*
X84762771Y-76323428D01*
X85262771Y-74966286D02*
X84262771Y-74966286D01*
X85119914Y-74966286D02*
X85191342Y-74894857D01*
X85191342Y-74894857D02*
X85262771Y-74752000D01*
X85262771Y-74752000D02*
X85262771Y-74537714D01*
X85262771Y-74537714D02*
X85191342Y-74394857D01*
X85191342Y-74394857D02*
X85048485Y-74323429D01*
X85048485Y-74323429D02*
X84262771Y-74323429D01*
X85262771Y-73752000D02*
X85262771Y-72966286D01*
X85262771Y-72966286D02*
X84262771Y-73752000D01*
X84262771Y-73752000D02*
X84262771Y-72966286D01*
X84262771Y-72394857D02*
X85262771Y-72394857D01*
X85762771Y-72394857D02*
X85691342Y-72466285D01*
X85691342Y-72466285D02*
X85619914Y-72394857D01*
X85619914Y-72394857D02*
X85691342Y-72323428D01*
X85691342Y-72323428D02*
X85762771Y-72394857D01*
X85762771Y-72394857D02*
X85619914Y-72394857D01*
X84334200Y-71109142D02*
X84262771Y-71251999D01*
X84262771Y-71251999D02*
X84262771Y-71537714D01*
X84262771Y-71537714D02*
X84334200Y-71680571D01*
X84334200Y-71680571D02*
X84477057Y-71751999D01*
X84477057Y-71751999D02*
X85048485Y-71751999D01*
X85048485Y-71751999D02*
X85191342Y-71680571D01*
X85191342Y-71680571D02*
X85262771Y-71537714D01*
X85262771Y-71537714D02*
X85262771Y-71251999D01*
X85262771Y-71251999D02*
X85191342Y-71109142D01*
X85191342Y-71109142D02*
X85048485Y-71037714D01*
X85048485Y-71037714D02*
X84905628Y-71037714D01*
X84905628Y-71037714D02*
X84762771Y-71751999D01*
D11*
X88709184Y-128835161D02*
X88804422Y-128930400D01*
X88804422Y-128930400D02*
X89090136Y-129025638D01*
X89090136Y-129025638D02*
X89280612Y-129025638D01*
X89280612Y-129025638D02*
X89566327Y-128930400D01*
X89566327Y-128930400D02*
X89756803Y-128739923D01*
X89756803Y-128739923D02*
X89852041Y-128549447D01*
X89852041Y-128549447D02*
X89947279Y-128168495D01*
X89947279Y-128168495D02*
X89947279Y-127882780D01*
X89947279Y-127882780D02*
X89852041Y-127501828D01*
X89852041Y-127501828D02*
X89756803Y-127311352D01*
X89756803Y-127311352D02*
X89566327Y-127120876D01*
X89566327Y-127120876D02*
X89280612Y-127025638D01*
X89280612Y-127025638D02*
X89090136Y-127025638D01*
X89090136Y-127025638D02*
X88804422Y-127120876D01*
X88804422Y-127120876D02*
X88709184Y-127216114D01*
X87852041Y-129025638D02*
X87852041Y-127025638D01*
X86994898Y-129025638D02*
X86994898Y-127978019D01*
X86994898Y-127978019D02*
X87090136Y-127787542D01*
X87090136Y-127787542D02*
X87280612Y-127692304D01*
X87280612Y-127692304D02*
X87566327Y-127692304D01*
X87566327Y-127692304D02*
X87756803Y-127787542D01*
X87756803Y-127787542D02*
X87852041Y-127882780D01*
X86137755Y-127216114D02*
X86042517Y-127120876D01*
X86042517Y-127120876D02*
X85852041Y-127025638D01*
X85852041Y-127025638D02*
X85375850Y-127025638D01*
X85375850Y-127025638D02*
X85185374Y-127120876D01*
X85185374Y-127120876D02*
X85090136Y-127216114D01*
X85090136Y-127216114D02*
X84994898Y-127406590D01*
X84994898Y-127406590D02*
X84994898Y-127597066D01*
X84994898Y-127597066D02*
X85090136Y-127882780D01*
X85090136Y-127882780D02*
X86232993Y-129025638D01*
X86232993Y-129025638D02*
X84994898Y-129025638D01*
D10*
X82541420Y-171570152D02*
X82541420Y-172379676D01*
X82541420Y-172379676D02*
X82579515Y-172474914D01*
X82579515Y-172474914D02*
X82617611Y-172522533D01*
X82617611Y-172522533D02*
X82693801Y-172570152D01*
X82693801Y-172570152D02*
X82808087Y-172570152D01*
X82808087Y-172570152D02*
X82884277Y-172522533D01*
X82541420Y-172189200D02*
X82617611Y-172236819D01*
X82617611Y-172236819D02*
X82769992Y-172236819D01*
X82769992Y-172236819D02*
X82846182Y-172189200D01*
X82846182Y-172189200D02*
X82884277Y-172141580D01*
X82884277Y-172141580D02*
X82922373Y-172046342D01*
X82922373Y-172046342D02*
X82922373Y-171760628D01*
X82922373Y-171760628D02*
X82884277Y-171665390D01*
X82884277Y-171665390D02*
X82846182Y-171617771D01*
X82846182Y-171617771D02*
X82769992Y-171570152D01*
X82769992Y-171570152D02*
X82617611Y-171570152D01*
X82617611Y-171570152D02*
X82541420Y-171617771D01*
X82160467Y-171570152D02*
X82160467Y-172236819D01*
X82160467Y-171665390D02*
X82122372Y-171617771D01*
X82122372Y-171617771D02*
X82046182Y-171570152D01*
X82046182Y-171570152D02*
X81931896Y-171570152D01*
X81931896Y-171570152D02*
X81855705Y-171617771D01*
X81855705Y-171617771D02*
X81817610Y-171713009D01*
X81817610Y-171713009D02*
X81817610Y-172236819D01*
X81093800Y-172236819D02*
X81093800Y-171236819D01*
X81093800Y-172189200D02*
X81169991Y-172236819D01*
X81169991Y-172236819D02*
X81322372Y-172236819D01*
X81322372Y-172236819D02*
X81398562Y-172189200D01*
X81398562Y-172189200D02*
X81436657Y-172141580D01*
X81436657Y-172141580D02*
X81474753Y-172046342D01*
X81474753Y-172046342D02*
X81474753Y-171760628D01*
X81474753Y-171760628D02*
X81436657Y-171665390D01*
X81436657Y-171665390D02*
X81398562Y-171617771D01*
X81398562Y-171617771D02*
X81322372Y-171570152D01*
X81322372Y-171570152D02*
X81169991Y-171570152D01*
X81169991Y-171570152D02*
X81093800Y-171617771D01*
X85409988Y-171570152D02*
X85409988Y-172570152D01*
X85409988Y-171617771D02*
X85333798Y-171570152D01*
X85333798Y-171570152D02*
X85181417Y-171570152D01*
X85181417Y-171570152D02*
X85105226Y-171617771D01*
X85105226Y-171617771D02*
X85067131Y-171665390D01*
X85067131Y-171665390D02*
X85029036Y-171760628D01*
X85029036Y-171760628D02*
X85029036Y-172046342D01*
X85029036Y-172046342D02*
X85067131Y-172141580D01*
X85067131Y-172141580D02*
X85105226Y-172189200D01*
X85105226Y-172189200D02*
X85181417Y-172236819D01*
X85181417Y-172236819D02*
X85333798Y-172236819D01*
X85333798Y-172236819D02*
X85409988Y-172189200D01*
X84762369Y-171570152D02*
X84609988Y-172236819D01*
X84609988Y-172236819D02*
X84457607Y-171760628D01*
X84457607Y-171760628D02*
X84305226Y-172236819D01*
X84305226Y-172236819D02*
X84152845Y-171570152D01*
X83848083Y-172236819D02*
X83848083Y-171570152D01*
X83848083Y-171760628D02*
X83809988Y-171665390D01*
X83809988Y-171665390D02*
X83771893Y-171617771D01*
X83771893Y-171617771D02*
X83695702Y-171570152D01*
X83695702Y-171570152D02*
X83619512Y-171570152D01*
X88164272Y-172236819D02*
X88164272Y-171236819D01*
X88164272Y-172189200D02*
X88240463Y-172236819D01*
X88240463Y-172236819D02*
X88392844Y-172236819D01*
X88392844Y-172236819D02*
X88469034Y-172189200D01*
X88469034Y-172189200D02*
X88507129Y-172141580D01*
X88507129Y-172141580D02*
X88545225Y-172046342D01*
X88545225Y-172046342D02*
X88545225Y-171760628D01*
X88545225Y-171760628D02*
X88507129Y-171665390D01*
X88507129Y-171665390D02*
X88469034Y-171617771D01*
X88469034Y-171617771D02*
X88392844Y-171570152D01*
X88392844Y-171570152D02*
X88240463Y-171570152D01*
X88240463Y-171570152D02*
X88164272Y-171617771D01*
X87440462Y-172236819D02*
X87440462Y-171713009D01*
X87440462Y-171713009D02*
X87478557Y-171617771D01*
X87478557Y-171617771D02*
X87554748Y-171570152D01*
X87554748Y-171570152D02*
X87707129Y-171570152D01*
X87707129Y-171570152D02*
X87783319Y-171617771D01*
X87440462Y-172189200D02*
X87516653Y-172236819D01*
X87516653Y-172236819D02*
X87707129Y-172236819D01*
X87707129Y-172236819D02*
X87783319Y-172189200D01*
X87783319Y-172189200D02*
X87821415Y-172093961D01*
X87821415Y-172093961D02*
X87821415Y-171998723D01*
X87821415Y-171998723D02*
X87783319Y-171903485D01*
X87783319Y-171903485D02*
X87707129Y-171855866D01*
X87707129Y-171855866D02*
X87516653Y-171855866D01*
X87516653Y-171855866D02*
X87440462Y-171808247D01*
X87173795Y-171570152D02*
X86869033Y-171570152D01*
X87059509Y-171236819D02*
X87059509Y-172093961D01*
X87059509Y-172093961D02*
X87021414Y-172189200D01*
X87021414Y-172189200D02*
X86945224Y-172236819D01*
X86945224Y-172236819D02*
X86869033Y-172236819D01*
X86259509Y-172236819D02*
X86259509Y-171713009D01*
X86259509Y-171713009D02*
X86297604Y-171617771D01*
X86297604Y-171617771D02*
X86373795Y-171570152D01*
X86373795Y-171570152D02*
X86526176Y-171570152D01*
X86526176Y-171570152D02*
X86602366Y-171617771D01*
X86259509Y-172189200D02*
X86335700Y-172236819D01*
X86335700Y-172236819D02*
X86526176Y-172236819D01*
X86526176Y-172236819D02*
X86602366Y-172189200D01*
X86602366Y-172189200D02*
X86640462Y-172093961D01*
X86640462Y-172093961D02*
X86640462Y-171998723D01*
X86640462Y-171998723D02*
X86602366Y-171903485D01*
X86602366Y-171903485D02*
X86526176Y-171855866D01*
X86526176Y-171855866D02*
X86335700Y-171855866D01*
X86335700Y-171855866D02*
X86259509Y-171808247D01*
X90537602Y-171570152D02*
X90385221Y-172236819D01*
X90385221Y-172236819D02*
X90232840Y-171760628D01*
X90232840Y-171760628D02*
X90080459Y-172236819D01*
X90080459Y-172236819D02*
X89928078Y-171570152D01*
X89661412Y-172189200D02*
X89585221Y-172236819D01*
X89585221Y-172236819D02*
X89432840Y-172236819D01*
X89432840Y-172236819D02*
X89356650Y-172189200D01*
X89356650Y-172189200D02*
X89318554Y-172093961D01*
X89318554Y-172093961D02*
X89318554Y-172046342D01*
X89318554Y-172046342D02*
X89356650Y-171951104D01*
X89356650Y-171951104D02*
X89432840Y-171903485D01*
X89432840Y-171903485D02*
X89547126Y-171903485D01*
X89547126Y-171903485D02*
X89623316Y-171855866D01*
X89623316Y-171855866D02*
X89661412Y-171760628D01*
X89661412Y-171760628D02*
X89661412Y-171713009D01*
X89661412Y-171713009D02*
X89623316Y-171617771D01*
X89623316Y-171617771D02*
X89547126Y-171570152D01*
X89547126Y-171570152D02*
X89432840Y-171570152D01*
X89432840Y-171570152D02*
X89356650Y-171617771D01*
X92949030Y-172189200D02*
X92872839Y-172236819D01*
X92872839Y-172236819D02*
X92720458Y-172236819D01*
X92720458Y-172236819D02*
X92644268Y-172189200D01*
X92644268Y-172189200D02*
X92606172Y-172093961D01*
X92606172Y-172093961D02*
X92606172Y-172046342D01*
X92606172Y-172046342D02*
X92644268Y-171951104D01*
X92644268Y-171951104D02*
X92720458Y-171903485D01*
X92720458Y-171903485D02*
X92834744Y-171903485D01*
X92834744Y-171903485D02*
X92910934Y-171855866D01*
X92910934Y-171855866D02*
X92949030Y-171760628D01*
X92949030Y-171760628D02*
X92949030Y-171713009D01*
X92949030Y-171713009D02*
X92910934Y-171617771D01*
X92910934Y-171617771D02*
X92834744Y-171570152D01*
X92834744Y-171570152D02*
X92720458Y-171570152D01*
X92720458Y-171570152D02*
X92644268Y-171617771D01*
X91920458Y-172189200D02*
X91996649Y-172236819D01*
X91996649Y-172236819D02*
X92149030Y-172236819D01*
X92149030Y-172236819D02*
X92225220Y-172189200D01*
X92225220Y-172189200D02*
X92263315Y-172141580D01*
X92263315Y-172141580D02*
X92301411Y-172046342D01*
X92301411Y-172046342D02*
X92301411Y-171760628D01*
X92301411Y-171760628D02*
X92263315Y-171665390D01*
X92263315Y-171665390D02*
X92225220Y-171617771D01*
X92225220Y-171617771D02*
X92149030Y-171570152D01*
X92149030Y-171570152D02*
X91996649Y-171570152D01*
X91996649Y-171570152D02*
X91920458Y-171617771D01*
X91577601Y-172236819D02*
X91577601Y-171236819D01*
X91501411Y-171855866D02*
X91272839Y-172236819D01*
X91272839Y-171570152D02*
X91577601Y-171951104D01*
D11*
X88505984Y-48672761D02*
X88601222Y-48768000D01*
X88601222Y-48768000D02*
X88886936Y-48863238D01*
X88886936Y-48863238D02*
X89077412Y-48863238D01*
X89077412Y-48863238D02*
X89363127Y-48768000D01*
X89363127Y-48768000D02*
X89553603Y-48577523D01*
X89553603Y-48577523D02*
X89648841Y-48387047D01*
X89648841Y-48387047D02*
X89744079Y-48006095D01*
X89744079Y-48006095D02*
X89744079Y-47720380D01*
X89744079Y-47720380D02*
X89648841Y-47339428D01*
X89648841Y-47339428D02*
X89553603Y-47148952D01*
X89553603Y-47148952D02*
X89363127Y-46958476D01*
X89363127Y-46958476D02*
X89077412Y-46863238D01*
X89077412Y-46863238D02*
X88886936Y-46863238D01*
X88886936Y-46863238D02*
X88601222Y-46958476D01*
X88601222Y-46958476D02*
X88505984Y-47053714D01*
X87648841Y-48863238D02*
X87648841Y-46863238D01*
X86791698Y-48863238D02*
X86791698Y-47815619D01*
X86791698Y-47815619D02*
X86886936Y-47625142D01*
X86886936Y-47625142D02*
X87077412Y-47529904D01*
X87077412Y-47529904D02*
X87363127Y-47529904D01*
X87363127Y-47529904D02*
X87553603Y-47625142D01*
X87553603Y-47625142D02*
X87648841Y-47720380D01*
X84791698Y-48863238D02*
X85934555Y-48863238D01*
X85363127Y-48863238D02*
X85363127Y-46863238D01*
X85363127Y-46863238D02*
X85553603Y-47148952D01*
X85553603Y-47148952D02*
X85744079Y-47339428D01*
X85744079Y-47339428D02*
X85934555Y-47434666D01*
M02*
