%TF.GenerationSoftware,KiCad,Pcbnew,8.0.4*%
%TF.CreationDate,2024-10-16T15:26:13-05:00*%
%TF.ProjectId,mic_dual_circuit,6d69635f-6475-4616-9c5f-636972637569,rev?*%
%TF.SameCoordinates,Original*%
%TF.FileFunction,Copper,L1,Top*%
%TF.FilePolarity,Positive*%
%FSLAX46Y46*%
G04 Gerber Fmt 4.6, Leading zero omitted, Abs format (unit mm)*
G04 Created by KiCad (PCBNEW 8.0.4) date 2024-10-16 15:26:13*
%MOMM*%
%LPD*%
G01*
G04 APERTURE LIST*
%TA.AperFunction,ComponentPad*%
%ADD10R,1.700000X1.700000*%
%TD*%
%TA.AperFunction,ComponentPad*%
%ADD11O,1.700000X1.700000*%
%TD*%
%TA.AperFunction,ComponentPad*%
%ADD12C,1.700000*%
%TD*%
G04 APERTURE END LIST*
D10*
%TO.P,REF\u002A\u002A,1*%
%TO.N,gnd*%
X82280000Y-18500000D03*
D11*
%TO.P,REF\u002A\u002A,2*%
%TO.N,pwr*%
X84820000Y-18500000D03*
%TO.P,REF\u002A\u002A,3*%
%TO.N,data*%
X87360000Y-18500000D03*
%TO.P,REF\u002A\u002A,4*%
%TO.N,ws*%
X89900000Y-18500000D03*
%TO.P,REF\u002A\u002A,5*%
%TO.N,sck*%
X92440000Y-18500000D03*
%TD*%
D10*
%TO.P,REF\u002A\u002A,1*%
%TO.N,gnd*%
X83600000Y-58860000D03*
D12*
%TO.N,pwr*%
X91200000Y-58940000D03*
%TO.P,REF\u002A\u002A,2*%
X83600000Y-56320000D03*
%TO.N,ws*%
X91200000Y-56400000D03*
%TO.P,REF\u002A\u002A,3*%
%TO.N,data*%
X83600000Y-53780000D03*
%TO.N,sck*%
X91200000Y-53860000D03*
%TD*%
D10*
%TO.P,REF\u002A\u002A,1*%
%TO.N,gnd*%
X82150000Y-174275000D03*
D11*
%TO.P,REF\u002A\u002A,2*%
%TO.N,pwr*%
X84690000Y-174275000D03*
%TO.P,REF\u002A\u002A,3*%
%TO.N,data*%
X87230000Y-174275000D03*
%TO.P,REF\u002A\u002A,4*%
%TO.N,ws*%
X89770000Y-174275000D03*
%TO.P,REF\u002A\u002A,5*%
%TO.N,sck*%
X92310000Y-174275000D03*
%TD*%
D10*
%TO.P,REF\u002A\u002A,1*%
%TO.N,gnd*%
X83600000Y-138860000D03*
D12*
X91200000Y-138940000D03*
%TO.P,REF\u002A\u002A,2*%
%TO.N,pwr*%
X83600000Y-136320000D03*
%TO.N,ws*%
X91200000Y-136400000D03*
%TO.P,REF\u002A\u002A,3*%
%TO.N,data*%
X83600000Y-133780000D03*
%TO.N,sck*%
X91200000Y-133860000D03*
%TD*%
%TA.AperFunction,Conductor*%
%TO.N,gnd*%
G36*
X84822285Y-16916719D02*
G01*
X84848518Y-16902931D01*
X84872950Y-16900500D01*
X87307050Y-16900500D01*
X87362285Y-16916719D01*
X87388518Y-16902931D01*
X87412950Y-16900500D01*
X89847050Y-16900500D01*
X89902285Y-16916719D01*
X89928518Y-16902931D01*
X89952950Y-16900500D01*
X92387050Y-16900500D01*
X92442285Y-16916719D01*
X92468518Y-16902931D01*
X92492950Y-16900500D01*
X93903028Y-16900500D01*
X93970067Y-16920185D01*
X94015822Y-16972989D01*
X94027028Y-17024500D01*
X94027028Y-18304499D01*
X94007343Y-18371538D01*
X93954539Y-18417293D01*
X93885381Y-18427237D01*
X93821825Y-18398212D01*
X93784051Y-18339434D01*
X93779500Y-18315307D01*
X93775063Y-18264596D01*
X93775063Y-18264592D01*
X93713903Y-18036337D01*
X93614035Y-17822171D01*
X93608425Y-17814158D01*
X93478494Y-17628597D01*
X93311402Y-17461506D01*
X93311395Y-17461501D01*
X93117834Y-17325967D01*
X93117830Y-17325965D01*
X93117828Y-17325964D01*
X92903663Y-17226097D01*
X92903659Y-17226096D01*
X92903655Y-17226094D01*
X92675413Y-17164938D01*
X92675403Y-17164936D01*
X92482142Y-17148028D01*
X92440344Y-17131677D01*
X92421985Y-17143477D01*
X92397858Y-17148028D01*
X92204596Y-17164936D01*
X92204586Y-17164938D01*
X91976344Y-17226094D01*
X91976335Y-17226098D01*
X91762171Y-17325964D01*
X91762169Y-17325965D01*
X91568597Y-17461505D01*
X91401505Y-17628597D01*
X91271575Y-17814158D01*
X91216998Y-17857783D01*
X91147500Y-17864977D01*
X91085145Y-17833454D01*
X91068425Y-17814158D01*
X90938494Y-17628597D01*
X90771402Y-17461506D01*
X90771395Y-17461501D01*
X90577834Y-17325967D01*
X90577830Y-17325965D01*
X90577828Y-17325964D01*
X90363663Y-17226097D01*
X90363659Y-17226096D01*
X90363655Y-17226094D01*
X90135413Y-17164938D01*
X90135403Y-17164936D01*
X89942142Y-17148028D01*
X89900344Y-17131677D01*
X89881985Y-17143477D01*
X89857858Y-17148028D01*
X89664596Y-17164936D01*
X89664586Y-17164938D01*
X89436344Y-17226094D01*
X89436335Y-17226098D01*
X89222171Y-17325964D01*
X89222169Y-17325965D01*
X89028597Y-17461505D01*
X88861505Y-17628597D01*
X88731575Y-17814158D01*
X88676998Y-17857783D01*
X88607500Y-17864977D01*
X88545145Y-17833454D01*
X88528425Y-17814158D01*
X88398494Y-17628597D01*
X88231402Y-17461506D01*
X88231395Y-17461501D01*
X88037834Y-17325967D01*
X88037830Y-17325965D01*
X88037828Y-17325964D01*
X87823663Y-17226097D01*
X87823659Y-17226096D01*
X87823655Y-17226094D01*
X87595413Y-17164938D01*
X87595403Y-17164936D01*
X87402142Y-17148028D01*
X87360344Y-17131677D01*
X87341985Y-17143477D01*
X87317858Y-17148028D01*
X87124596Y-17164936D01*
X87124586Y-17164938D01*
X86896344Y-17226094D01*
X86896335Y-17226098D01*
X86682171Y-17325964D01*
X86682169Y-17325965D01*
X86488597Y-17461505D01*
X86321505Y-17628597D01*
X86191575Y-17814158D01*
X86136998Y-17857783D01*
X86067500Y-17864977D01*
X86005145Y-17833454D01*
X85988425Y-17814158D01*
X85858494Y-17628597D01*
X85691402Y-17461506D01*
X85691395Y-17461501D01*
X85497834Y-17325967D01*
X85497830Y-17325965D01*
X85497828Y-17325964D01*
X85283663Y-17226097D01*
X85283659Y-17226096D01*
X85283655Y-17226094D01*
X85055413Y-17164938D01*
X85055403Y-17164936D01*
X84862142Y-17148028D01*
X84820344Y-17131677D01*
X84801985Y-17143477D01*
X84777858Y-17148028D01*
X84584596Y-17164936D01*
X84584586Y-17164938D01*
X84356344Y-17226094D01*
X84356335Y-17226098D01*
X84142171Y-17325964D01*
X84142169Y-17325965D01*
X83948597Y-17461505D01*
X83781505Y-17628597D01*
X83645965Y-17822169D01*
X83645964Y-17822171D01*
X83546098Y-18036335D01*
X83546094Y-18036344D01*
X83484938Y-18264586D01*
X83484936Y-18264596D01*
X83464341Y-18499999D01*
X83464341Y-18500000D01*
X83484936Y-18735403D01*
X83484938Y-18735413D01*
X83546094Y-18963655D01*
X83546096Y-18963659D01*
X83546097Y-18963663D01*
X83550000Y-18972032D01*
X83645965Y-19177830D01*
X83645967Y-19177834D01*
X83754281Y-19332521D01*
X83781505Y-19371401D01*
X83948599Y-19538495D01*
X84045384Y-19606265D01*
X84142165Y-19674032D01*
X84142167Y-19674033D01*
X84142170Y-19674035D01*
X84356337Y-19773903D01*
X84584592Y-19835063D01*
X84772918Y-19851539D01*
X84819999Y-19855659D01*
X84820000Y-19855659D01*
X84820001Y-19855659D01*
X84859234Y-19852226D01*
X85055408Y-19835063D01*
X85283663Y-19773903D01*
X85497830Y-19674035D01*
X85691401Y-19538495D01*
X85858495Y-19371401D01*
X85988425Y-19185842D01*
X86043002Y-19142217D01*
X86112500Y-19135023D01*
X86174855Y-19166546D01*
X86191575Y-19185842D01*
X86321500Y-19371395D01*
X86321505Y-19371401D01*
X86488599Y-19538495D01*
X86585384Y-19606265D01*
X86682165Y-19674032D01*
X86682167Y-19674033D01*
X86682170Y-19674035D01*
X86896337Y-19773903D01*
X87124592Y-19835063D01*
X87312918Y-19851539D01*
X87359999Y-19855659D01*
X87360000Y-19855659D01*
X87360001Y-19855659D01*
X87399234Y-19852226D01*
X87595408Y-19835063D01*
X87823663Y-19773903D01*
X88037830Y-19674035D01*
X88231401Y-19538495D01*
X88398495Y-19371401D01*
X88528425Y-19185842D01*
X88583002Y-19142217D01*
X88652500Y-19135023D01*
X88714855Y-19166546D01*
X88731575Y-19185842D01*
X88861500Y-19371395D01*
X88861505Y-19371401D01*
X89028599Y-19538495D01*
X89125384Y-19606265D01*
X89222165Y-19674032D01*
X89222167Y-19674033D01*
X89222170Y-19674035D01*
X89436337Y-19773903D01*
X89664592Y-19835063D01*
X89852918Y-19851539D01*
X89899999Y-19855659D01*
X89900000Y-19855659D01*
X89900001Y-19855659D01*
X89939234Y-19852226D01*
X90135408Y-19835063D01*
X90363663Y-19773903D01*
X90577830Y-19674035D01*
X90771401Y-19538495D01*
X90938495Y-19371401D01*
X91068425Y-19185842D01*
X91123002Y-19142217D01*
X91192500Y-19135023D01*
X91254855Y-19166546D01*
X91271575Y-19185842D01*
X91401500Y-19371395D01*
X91401505Y-19371401D01*
X91568599Y-19538495D01*
X91665384Y-19606265D01*
X91762165Y-19674032D01*
X91762167Y-19674033D01*
X91762170Y-19674035D01*
X91976337Y-19773903D01*
X92204592Y-19835063D01*
X92392918Y-19851539D01*
X92439999Y-19855659D01*
X92440000Y-19855659D01*
X92440001Y-19855659D01*
X92479234Y-19852226D01*
X92675408Y-19835063D01*
X92903663Y-19773903D01*
X93117830Y-19674035D01*
X93311401Y-19538495D01*
X93478495Y-19371401D01*
X93614035Y-19177830D01*
X93713903Y-18963663D01*
X93775063Y-18735408D01*
X93779500Y-18684691D01*
X93804953Y-18619624D01*
X93861543Y-18578645D01*
X93931305Y-18574767D01*
X93992090Y-18609221D01*
X94024597Y-18671068D01*
X94027028Y-18695500D01*
X94027028Y-175775500D01*
X94007343Y-175842539D01*
X93954539Y-175888294D01*
X93903028Y-175899500D01*
X80824500Y-175899500D01*
X80757461Y-175879815D01*
X80711706Y-175827011D01*
X80700500Y-175775500D01*
X80700500Y-174274999D01*
X83334341Y-174274999D01*
X83334341Y-174275000D01*
X83354936Y-174510403D01*
X83354938Y-174510413D01*
X83416094Y-174738655D01*
X83416096Y-174738659D01*
X83416097Y-174738663D01*
X83420000Y-174747032D01*
X83515965Y-174952830D01*
X83515967Y-174952834D01*
X83624281Y-175107521D01*
X83651505Y-175146401D01*
X83818599Y-175313495D01*
X83915384Y-175381265D01*
X84012165Y-175449032D01*
X84012167Y-175449033D01*
X84012170Y-175449035D01*
X84226337Y-175548903D01*
X84454592Y-175610063D01*
X84642918Y-175626539D01*
X84689999Y-175630659D01*
X84690000Y-175630659D01*
X84690001Y-175630659D01*
X84729234Y-175627226D01*
X84925408Y-175610063D01*
X85153663Y-175548903D01*
X85367830Y-175449035D01*
X85561401Y-175313495D01*
X85728495Y-175146401D01*
X85858425Y-174960842D01*
X85913002Y-174917217D01*
X85982500Y-174910023D01*
X86044855Y-174941546D01*
X86061575Y-174960842D01*
X86191500Y-175146395D01*
X86191505Y-175146401D01*
X86358599Y-175313495D01*
X86455384Y-175381265D01*
X86552165Y-175449032D01*
X86552167Y-175449033D01*
X86552170Y-175449035D01*
X86766337Y-175548903D01*
X86994592Y-175610063D01*
X87182918Y-175626539D01*
X87229999Y-175630659D01*
X87230000Y-175630659D01*
X87230001Y-175630659D01*
X87269234Y-175627226D01*
X87465408Y-175610063D01*
X87693663Y-175548903D01*
X87907830Y-175449035D01*
X88101401Y-175313495D01*
X88268495Y-175146401D01*
X88398425Y-174960842D01*
X88453002Y-174917217D01*
X88522500Y-174910023D01*
X88584855Y-174941546D01*
X88601575Y-174960842D01*
X88731500Y-175146395D01*
X88731505Y-175146401D01*
X88898599Y-175313495D01*
X88995384Y-175381265D01*
X89092165Y-175449032D01*
X89092167Y-175449033D01*
X89092170Y-175449035D01*
X89306337Y-175548903D01*
X89534592Y-175610063D01*
X89722918Y-175626539D01*
X89769999Y-175630659D01*
X89770000Y-175630659D01*
X89770001Y-175630659D01*
X89809234Y-175627226D01*
X90005408Y-175610063D01*
X90233663Y-175548903D01*
X90447830Y-175449035D01*
X90641401Y-175313495D01*
X90808495Y-175146401D01*
X90938425Y-174960842D01*
X90993002Y-174917217D01*
X91062500Y-174910023D01*
X91124855Y-174941546D01*
X91141575Y-174960842D01*
X91271500Y-175146395D01*
X91271505Y-175146401D01*
X91438599Y-175313495D01*
X91535384Y-175381265D01*
X91632165Y-175449032D01*
X91632167Y-175449033D01*
X91632170Y-175449035D01*
X91846337Y-175548903D01*
X92074592Y-175610063D01*
X92262918Y-175626539D01*
X92309999Y-175630659D01*
X92310000Y-175630659D01*
X92310001Y-175630659D01*
X92349234Y-175627226D01*
X92545408Y-175610063D01*
X92773663Y-175548903D01*
X92987830Y-175449035D01*
X93181401Y-175313495D01*
X93348495Y-175146401D01*
X93484035Y-174952830D01*
X93583903Y-174738663D01*
X93645063Y-174510408D01*
X93665659Y-174275000D01*
X93645063Y-174039592D01*
X93583903Y-173811337D01*
X93484035Y-173597171D01*
X93478425Y-173589158D01*
X93348494Y-173403597D01*
X93181402Y-173236506D01*
X93181395Y-173236501D01*
X92987834Y-173100967D01*
X92987830Y-173100965D01*
X92987828Y-173100964D01*
X92773663Y-173001097D01*
X92773659Y-173001096D01*
X92773655Y-173001094D01*
X92545413Y-172939938D01*
X92545403Y-172939936D01*
X92310001Y-172919341D01*
X92309999Y-172919341D01*
X92074596Y-172939936D01*
X92074586Y-172939938D01*
X91846344Y-173001094D01*
X91846335Y-173001098D01*
X91632171Y-173100964D01*
X91632169Y-173100965D01*
X91438597Y-173236505D01*
X91271505Y-173403597D01*
X91141575Y-173589158D01*
X91086998Y-173632783D01*
X91017500Y-173639977D01*
X90955145Y-173608454D01*
X90938425Y-173589158D01*
X90808494Y-173403597D01*
X90641402Y-173236506D01*
X90641395Y-173236501D01*
X90447834Y-173100967D01*
X90447830Y-173100965D01*
X90447828Y-173100964D01*
X90233663Y-173001097D01*
X90233659Y-173001096D01*
X90233655Y-173001094D01*
X90005413Y-172939938D01*
X90005403Y-172939936D01*
X89770001Y-172919341D01*
X89769999Y-172919341D01*
X89534596Y-172939936D01*
X89534586Y-172939938D01*
X89306344Y-173001094D01*
X89306335Y-173001098D01*
X89092171Y-173100964D01*
X89092169Y-173100965D01*
X88898597Y-173236505D01*
X88731505Y-173403597D01*
X88601575Y-173589158D01*
X88546998Y-173632783D01*
X88477500Y-173639977D01*
X88415145Y-173608454D01*
X88398425Y-173589158D01*
X88268494Y-173403597D01*
X88101402Y-173236506D01*
X88101395Y-173236501D01*
X87907834Y-173100967D01*
X87907830Y-173100965D01*
X87907828Y-173100964D01*
X87693663Y-173001097D01*
X87693659Y-173001096D01*
X87693655Y-173001094D01*
X87465413Y-172939938D01*
X87465403Y-172939936D01*
X87230001Y-172919341D01*
X87229999Y-172919341D01*
X86994596Y-172939936D01*
X86994586Y-172939938D01*
X86766344Y-173001094D01*
X86766335Y-173001098D01*
X86552171Y-173100964D01*
X86552169Y-173100965D01*
X86358597Y-173236505D01*
X86191505Y-173403597D01*
X86061575Y-173589158D01*
X86006998Y-173632783D01*
X85937500Y-173639977D01*
X85875145Y-173608454D01*
X85858425Y-173589158D01*
X85728494Y-173403597D01*
X85561402Y-173236506D01*
X85561395Y-173236501D01*
X85367834Y-173100967D01*
X85367830Y-173100965D01*
X85367828Y-173100964D01*
X85153663Y-173001097D01*
X85153659Y-173001096D01*
X85153655Y-173001094D01*
X84925413Y-172939938D01*
X84925403Y-172939936D01*
X84690001Y-172919341D01*
X84689999Y-172919341D01*
X84454596Y-172939936D01*
X84454586Y-172939938D01*
X84226344Y-173001094D01*
X84226335Y-173001098D01*
X84012171Y-173100964D01*
X84012169Y-173100965D01*
X83818597Y-173236505D01*
X83651505Y-173403597D01*
X83515965Y-173597169D01*
X83515964Y-173597171D01*
X83416098Y-173811335D01*
X83416094Y-173811344D01*
X83354938Y-174039586D01*
X83354936Y-174039596D01*
X83334341Y-174274999D01*
X80700500Y-174274999D01*
X80700500Y-156209248D01*
X86024700Y-156209248D01*
X86024700Y-156413951D01*
X86056722Y-156616134D01*
X86119981Y-156810823D01*
X86212915Y-156993213D01*
X86333228Y-157158813D01*
X86477986Y-157303571D01*
X86632949Y-157416156D01*
X86643590Y-157423887D01*
X86759807Y-157483103D01*
X86825976Y-157516818D01*
X86825978Y-157516818D01*
X86825981Y-157516820D01*
X86930337Y-157550727D01*
X87020665Y-157580077D01*
X87121757Y-157596088D01*
X87222848Y-157612100D01*
X87222849Y-157612100D01*
X87427551Y-157612100D01*
X87427552Y-157612100D01*
X87629734Y-157580077D01*
X87824419Y-157516820D01*
X88006810Y-157423887D01*
X88099790Y-157356332D01*
X88172413Y-157303571D01*
X88172415Y-157303568D01*
X88172419Y-157303566D01*
X88317166Y-157158819D01*
X88317168Y-157158815D01*
X88317171Y-157158813D01*
X88369932Y-157086190D01*
X88437487Y-156993210D01*
X88530420Y-156810819D01*
X88593677Y-156616134D01*
X88625700Y-156413952D01*
X88625700Y-156209248D01*
X88593677Y-156007066D01*
X88530420Y-155812381D01*
X88530418Y-155812378D01*
X88530418Y-155812376D01*
X88496703Y-155746207D01*
X88437487Y-155629990D01*
X88429756Y-155619349D01*
X88317171Y-155464386D01*
X88172413Y-155319628D01*
X88006813Y-155199315D01*
X88006812Y-155199314D01*
X88006810Y-155199313D01*
X87949853Y-155170291D01*
X87824423Y-155106381D01*
X87629734Y-155043122D01*
X87455195Y-155015478D01*
X87427552Y-155011100D01*
X87222848Y-155011100D01*
X87198529Y-155014951D01*
X87020665Y-155043122D01*
X86825976Y-155106381D01*
X86643586Y-155199315D01*
X86477986Y-155319628D01*
X86333228Y-155464386D01*
X86212915Y-155629986D01*
X86119981Y-155812376D01*
X86056722Y-156007065D01*
X86024700Y-156209248D01*
X80700500Y-156209248D01*
X80700500Y-133779999D01*
X82244341Y-133779999D01*
X82244341Y-133780000D01*
X82264936Y-134015403D01*
X82264938Y-134015413D01*
X82326094Y-134243655D01*
X82326096Y-134243659D01*
X82326097Y-134243663D01*
X82425965Y-134457830D01*
X82425967Y-134457834D01*
X82561501Y-134651395D01*
X82561506Y-134651402D01*
X82728597Y-134818493D01*
X82728603Y-134818498D01*
X82914158Y-134948425D01*
X82957783Y-135003002D01*
X82964977Y-135072500D01*
X82933454Y-135134855D01*
X82914158Y-135151575D01*
X82728597Y-135281505D01*
X82561505Y-135448597D01*
X82425965Y-135642169D01*
X82425964Y-135642171D01*
X82326098Y-135856335D01*
X82326094Y-135856344D01*
X82264938Y-136084586D01*
X82264936Y-136084596D01*
X82244341Y-136319999D01*
X82244341Y-136320000D01*
X82264936Y-136555403D01*
X82264938Y-136555413D01*
X82326094Y-136783655D01*
X82326096Y-136783659D01*
X82326097Y-136783663D01*
X82425965Y-136997830D01*
X82425967Y-136997834D01*
X82481984Y-137077834D01*
X82561505Y-137191401D01*
X82728599Y-137358495D01*
X82825384Y-137426265D01*
X82922165Y-137494032D01*
X82922167Y-137494033D01*
X82922170Y-137494035D01*
X83136337Y-137593903D01*
X83364592Y-137655063D01*
X83552918Y-137671539D01*
X83599999Y-137675659D01*
X83600000Y-137675659D01*
X83600001Y-137675659D01*
X83639234Y-137672226D01*
X83835408Y-137655063D01*
X84063663Y-137593903D01*
X84277830Y-137494035D01*
X84471401Y-137358495D01*
X84638495Y-137191401D01*
X84774035Y-136997830D01*
X84873903Y-136783663D01*
X84935063Y-136555408D01*
X84955659Y-136320000D01*
X84935063Y-136084592D01*
X84873903Y-135856337D01*
X84774035Y-135642171D01*
X84694512Y-135528599D01*
X84638494Y-135448597D01*
X84471402Y-135281506D01*
X84471396Y-135281501D01*
X84285842Y-135151575D01*
X84242217Y-135096998D01*
X84235023Y-135027500D01*
X84266546Y-134965145D01*
X84285842Y-134948425D01*
X84357152Y-134898493D01*
X84471401Y-134818495D01*
X84638495Y-134651401D01*
X84774035Y-134457830D01*
X84873903Y-134243663D01*
X84935063Y-134015408D01*
X84948660Y-133859999D01*
X89844341Y-133859999D01*
X89844341Y-133860000D01*
X89864936Y-134095403D01*
X89864938Y-134095413D01*
X89926094Y-134323655D01*
X89926096Y-134323659D01*
X89926097Y-134323663D01*
X89988660Y-134457830D01*
X90025965Y-134537830D01*
X90025967Y-134537834D01*
X90161501Y-134731395D01*
X90161506Y-134731402D01*
X90328597Y-134898493D01*
X90328603Y-134898498D01*
X90514158Y-135028425D01*
X90557783Y-135083002D01*
X90564977Y-135152500D01*
X90533454Y-135214855D01*
X90514158Y-135231575D01*
X90328597Y-135361505D01*
X90161505Y-135528597D01*
X90025965Y-135722169D01*
X90025964Y-135722171D01*
X89926098Y-135936335D01*
X89926094Y-135936344D01*
X89864938Y-136164586D01*
X89864936Y-136164596D01*
X89844341Y-136399999D01*
X89844341Y-136400000D01*
X89864936Y-136635403D01*
X89864938Y-136635413D01*
X89926094Y-136863655D01*
X89926096Y-136863659D01*
X89926097Y-136863663D01*
X89988660Y-136997830D01*
X90025965Y-137077830D01*
X90025967Y-137077834D01*
X90105484Y-137191395D01*
X90161505Y-137271401D01*
X90328599Y-137438495D01*
X90407914Y-137494032D01*
X90522165Y-137574032D01*
X90522167Y-137574033D01*
X90522170Y-137574035D01*
X90736337Y-137673903D01*
X90736343Y-137673904D01*
X90736344Y-137673905D01*
X90791285Y-137688626D01*
X90964592Y-137735063D01*
X91152918Y-137751539D01*
X91199999Y-137755659D01*
X91200000Y-137755659D01*
X91200001Y-137755659D01*
X91239234Y-137752226D01*
X91435408Y-137735063D01*
X91663663Y-137673903D01*
X91877830Y-137574035D01*
X92071401Y-137438495D01*
X92238495Y-137271401D01*
X92374035Y-137077830D01*
X92473903Y-136863663D01*
X92535063Y-136635408D01*
X92555659Y-136400000D01*
X92535063Y-136164592D01*
X92473903Y-135936337D01*
X92374035Y-135722171D01*
X92318018Y-135642169D01*
X92238494Y-135528597D01*
X92071402Y-135361506D01*
X92071396Y-135361501D01*
X91885842Y-135231575D01*
X91842217Y-135176998D01*
X91835023Y-135107500D01*
X91866546Y-135045145D01*
X91885842Y-135028425D01*
X91976215Y-134965145D01*
X92071401Y-134898495D01*
X92238495Y-134731401D01*
X92374035Y-134537830D01*
X92473903Y-134323663D01*
X92535063Y-134095408D01*
X92555659Y-133860000D01*
X92535063Y-133624592D01*
X92473903Y-133396337D01*
X92374035Y-133182171D01*
X92318018Y-133102169D01*
X92238494Y-132988597D01*
X92071402Y-132821506D01*
X92071395Y-132821501D01*
X91877834Y-132685967D01*
X91877830Y-132685965D01*
X91877828Y-132685964D01*
X91663663Y-132586097D01*
X91663659Y-132586096D01*
X91663655Y-132586094D01*
X91435413Y-132524938D01*
X91435403Y-132524936D01*
X91200001Y-132504341D01*
X91199999Y-132504341D01*
X90964596Y-132524936D01*
X90964586Y-132524938D01*
X90736344Y-132586094D01*
X90736335Y-132586098D01*
X90522171Y-132685964D01*
X90522169Y-132685965D01*
X90328597Y-132821505D01*
X90161505Y-132988597D01*
X90025965Y-133182169D01*
X90025964Y-133182171D01*
X89926098Y-133396335D01*
X89926094Y-133396344D01*
X89864938Y-133624586D01*
X89864936Y-133624596D01*
X89844341Y-133859999D01*
X84948660Y-133859999D01*
X84955659Y-133780000D01*
X84935063Y-133544592D01*
X84873903Y-133316337D01*
X84774035Y-133102171D01*
X84694512Y-132988599D01*
X84638494Y-132908597D01*
X84471402Y-132741506D01*
X84471395Y-132741501D01*
X84277834Y-132605967D01*
X84277830Y-132605965D01*
X84235223Y-132586097D01*
X84063663Y-132506097D01*
X84063659Y-132506096D01*
X84063655Y-132506094D01*
X83835413Y-132444938D01*
X83835403Y-132444936D01*
X83600001Y-132424341D01*
X83599999Y-132424341D01*
X83364596Y-132444936D01*
X83364586Y-132444938D01*
X83136344Y-132506094D01*
X83136335Y-132506098D01*
X82922171Y-132605964D01*
X82922169Y-132605965D01*
X82728597Y-132741505D01*
X82561505Y-132908597D01*
X82425965Y-133102169D01*
X82425964Y-133102171D01*
X82326098Y-133316335D01*
X82326094Y-133316344D01*
X82264938Y-133544586D01*
X82264936Y-133544596D01*
X82244341Y-133779999D01*
X80700500Y-133779999D01*
X80700500Y-96265248D01*
X86099500Y-96265248D01*
X86099500Y-96469951D01*
X86131522Y-96672134D01*
X86194781Y-96866823D01*
X86287715Y-97049213D01*
X86408028Y-97214813D01*
X86552786Y-97359571D01*
X86707749Y-97472156D01*
X86718390Y-97479887D01*
X86834607Y-97539103D01*
X86900776Y-97572818D01*
X86900778Y-97572818D01*
X86900781Y-97572820D01*
X87005137Y-97606727D01*
X87095465Y-97636077D01*
X87196557Y-97652088D01*
X87297648Y-97668100D01*
X87297649Y-97668100D01*
X87502351Y-97668100D01*
X87502352Y-97668100D01*
X87704534Y-97636077D01*
X87899219Y-97572820D01*
X88081610Y-97479887D01*
X88174590Y-97412332D01*
X88247213Y-97359571D01*
X88247215Y-97359568D01*
X88247219Y-97359566D01*
X88391966Y-97214819D01*
X88391968Y-97214815D01*
X88391971Y-97214813D01*
X88444732Y-97142190D01*
X88512287Y-97049210D01*
X88605220Y-96866819D01*
X88668477Y-96672134D01*
X88700500Y-96469952D01*
X88700500Y-96265248D01*
X88668477Y-96063066D01*
X88605220Y-95868381D01*
X88605218Y-95868378D01*
X88605218Y-95868376D01*
X88571503Y-95802207D01*
X88512287Y-95685990D01*
X88504556Y-95675349D01*
X88391971Y-95520386D01*
X88247213Y-95375628D01*
X88081613Y-95255315D01*
X88081612Y-95255314D01*
X88081610Y-95255313D01*
X88024653Y-95226291D01*
X87899223Y-95162381D01*
X87704534Y-95099122D01*
X87529995Y-95071478D01*
X87502352Y-95067100D01*
X87297648Y-95067100D01*
X87273329Y-95070951D01*
X87095465Y-95099122D01*
X86900776Y-95162381D01*
X86718386Y-95255315D01*
X86552786Y-95375628D01*
X86408028Y-95520386D01*
X86287715Y-95685986D01*
X86194781Y-95868376D01*
X86131522Y-96063065D01*
X86099500Y-96265248D01*
X80700500Y-96265248D01*
X80700500Y-53779999D01*
X82244341Y-53779999D01*
X82244341Y-53780000D01*
X82264936Y-54015403D01*
X82264938Y-54015413D01*
X82326094Y-54243655D01*
X82326096Y-54243659D01*
X82326097Y-54243663D01*
X82425965Y-54457830D01*
X82425967Y-54457834D01*
X82561501Y-54651395D01*
X82561506Y-54651402D01*
X82728597Y-54818493D01*
X82728603Y-54818498D01*
X82914158Y-54948425D01*
X82957783Y-55003002D01*
X82964977Y-55072500D01*
X82933454Y-55134855D01*
X82914158Y-55151575D01*
X82728597Y-55281505D01*
X82561505Y-55448597D01*
X82425965Y-55642169D01*
X82425964Y-55642171D01*
X82326098Y-55856335D01*
X82326094Y-55856344D01*
X82264938Y-56084586D01*
X82264936Y-56084596D01*
X82244341Y-56319999D01*
X82244341Y-56320000D01*
X82264936Y-56555403D01*
X82264938Y-56555413D01*
X82326094Y-56783655D01*
X82326096Y-56783659D01*
X82326097Y-56783663D01*
X82425965Y-56997830D01*
X82425967Y-56997834D01*
X82481984Y-57077834D01*
X82561505Y-57191401D01*
X82728599Y-57358495D01*
X82825384Y-57426265D01*
X82922165Y-57494032D01*
X82922167Y-57494033D01*
X82922170Y-57494035D01*
X83136337Y-57593903D01*
X83364592Y-57655063D01*
X83535319Y-57670000D01*
X83599999Y-57675659D01*
X83600000Y-57675659D01*
X83600001Y-57675659D01*
X83664681Y-57670000D01*
X83835408Y-57655063D01*
X84063663Y-57593903D01*
X84277830Y-57494035D01*
X84471401Y-57358495D01*
X84638495Y-57191401D01*
X84774035Y-56997830D01*
X84873903Y-56783663D01*
X84935063Y-56555408D01*
X84955659Y-56320000D01*
X84935063Y-56084592D01*
X84873903Y-55856337D01*
X84774035Y-55642171D01*
X84694512Y-55528599D01*
X84638494Y-55448597D01*
X84471402Y-55281506D01*
X84471396Y-55281501D01*
X84285842Y-55151575D01*
X84242217Y-55096998D01*
X84235023Y-55027500D01*
X84266546Y-54965145D01*
X84285842Y-54948425D01*
X84357152Y-54898493D01*
X84471401Y-54818495D01*
X84638495Y-54651401D01*
X84774035Y-54457830D01*
X84873903Y-54243663D01*
X84935063Y-54015408D01*
X84948660Y-53859999D01*
X89844341Y-53859999D01*
X89844341Y-53860000D01*
X89864936Y-54095403D01*
X89864938Y-54095413D01*
X89926094Y-54323655D01*
X89926096Y-54323659D01*
X89926097Y-54323663D01*
X89988660Y-54457830D01*
X90025965Y-54537830D01*
X90025967Y-54537834D01*
X90161501Y-54731395D01*
X90161506Y-54731402D01*
X90328597Y-54898493D01*
X90328603Y-54898498D01*
X90514158Y-55028425D01*
X90557783Y-55083002D01*
X90564977Y-55152500D01*
X90533454Y-55214855D01*
X90514158Y-55231575D01*
X90328597Y-55361505D01*
X90161505Y-55528597D01*
X90025965Y-55722169D01*
X90025964Y-55722171D01*
X89926098Y-55936335D01*
X89926094Y-55936344D01*
X89864938Y-56164586D01*
X89864936Y-56164596D01*
X89844341Y-56399999D01*
X89844341Y-56400000D01*
X89864936Y-56635403D01*
X89864938Y-56635413D01*
X89926094Y-56863655D01*
X89926096Y-56863659D01*
X89926097Y-56863663D01*
X89988660Y-56997830D01*
X90025965Y-57077830D01*
X90025967Y-57077834D01*
X90161501Y-57271395D01*
X90161506Y-57271402D01*
X90328597Y-57438493D01*
X90328603Y-57438498D01*
X90514158Y-57568425D01*
X90557783Y-57623002D01*
X90564977Y-57692500D01*
X90533454Y-57754855D01*
X90514158Y-57771575D01*
X90328597Y-57901505D01*
X90161505Y-58068597D01*
X90025965Y-58262169D01*
X90025964Y-58262171D01*
X89926098Y-58476335D01*
X89926094Y-58476344D01*
X89864938Y-58704586D01*
X89864936Y-58704596D01*
X89844341Y-58939999D01*
X89844341Y-58940000D01*
X89864936Y-59175403D01*
X89864938Y-59175413D01*
X89926094Y-59403655D01*
X89926096Y-59403659D01*
X89926097Y-59403663D01*
X90025965Y-59617830D01*
X90025967Y-59617834D01*
X90134281Y-59772521D01*
X90161505Y-59811401D01*
X90328599Y-59978495D01*
X90425384Y-60046265D01*
X90522165Y-60114032D01*
X90522167Y-60114033D01*
X90522170Y-60114035D01*
X90736337Y-60213903D01*
X90964592Y-60275063D01*
X91152918Y-60291539D01*
X91199999Y-60295659D01*
X91200000Y-60295659D01*
X91200001Y-60295659D01*
X91239234Y-60292226D01*
X91435408Y-60275063D01*
X91663663Y-60213903D01*
X91877830Y-60114035D01*
X92071401Y-59978495D01*
X92238495Y-59811401D01*
X92374035Y-59617830D01*
X92473903Y-59403663D01*
X92535063Y-59175408D01*
X92555659Y-58940000D01*
X92535063Y-58704592D01*
X92473903Y-58476337D01*
X92374035Y-58262171D01*
X92238495Y-58068599D01*
X92238494Y-58068597D01*
X92071402Y-57901506D01*
X92071396Y-57901501D01*
X91885842Y-57771575D01*
X91842217Y-57716998D01*
X91835023Y-57647500D01*
X91866546Y-57585145D01*
X91885842Y-57568425D01*
X91908026Y-57552891D01*
X92071401Y-57438495D01*
X92238495Y-57271401D01*
X92374035Y-57077830D01*
X92473903Y-56863663D01*
X92535063Y-56635408D01*
X92555659Y-56400000D01*
X92535063Y-56164592D01*
X92473903Y-55936337D01*
X92374035Y-55722171D01*
X92318018Y-55642169D01*
X92238494Y-55528597D01*
X92071402Y-55361506D01*
X92071396Y-55361501D01*
X91885842Y-55231575D01*
X91842217Y-55176998D01*
X91835023Y-55107500D01*
X91866546Y-55045145D01*
X91885842Y-55028425D01*
X91976215Y-54965145D01*
X92071401Y-54898495D01*
X92238495Y-54731401D01*
X92374035Y-54537830D01*
X92473903Y-54323663D01*
X92535063Y-54095408D01*
X92555659Y-53860000D01*
X92535063Y-53624592D01*
X92473903Y-53396337D01*
X92374035Y-53182171D01*
X92318018Y-53102169D01*
X92238494Y-52988597D01*
X92071402Y-52821506D01*
X92071395Y-52821501D01*
X91877834Y-52685967D01*
X91877830Y-52685965D01*
X91877828Y-52685964D01*
X91663663Y-52586097D01*
X91663659Y-52586096D01*
X91663655Y-52586094D01*
X91435413Y-52524938D01*
X91435403Y-52524936D01*
X91200001Y-52504341D01*
X91199999Y-52504341D01*
X90964596Y-52524936D01*
X90964586Y-52524938D01*
X90736344Y-52586094D01*
X90736335Y-52586098D01*
X90522171Y-52685964D01*
X90522169Y-52685965D01*
X90328597Y-52821505D01*
X90161505Y-52988597D01*
X90025965Y-53182169D01*
X90025964Y-53182171D01*
X89926098Y-53396335D01*
X89926094Y-53396344D01*
X89864938Y-53624586D01*
X89864936Y-53624596D01*
X89844341Y-53859999D01*
X84948660Y-53859999D01*
X84955659Y-53780000D01*
X84935063Y-53544592D01*
X84873903Y-53316337D01*
X84774035Y-53102171D01*
X84694512Y-52988599D01*
X84638494Y-52908597D01*
X84471402Y-52741506D01*
X84471395Y-52741501D01*
X84277834Y-52605967D01*
X84277830Y-52605965D01*
X84235223Y-52586097D01*
X84063663Y-52506097D01*
X84063659Y-52506096D01*
X84063655Y-52506094D01*
X83835413Y-52444938D01*
X83835403Y-52444936D01*
X83600001Y-52424341D01*
X83599999Y-52424341D01*
X83364596Y-52444936D01*
X83364586Y-52444938D01*
X83136344Y-52506094D01*
X83136335Y-52506098D01*
X82922171Y-52605964D01*
X82922169Y-52605965D01*
X82728597Y-52741505D01*
X82561505Y-52908597D01*
X82425965Y-53102169D01*
X82425964Y-53102171D01*
X82326098Y-53316335D01*
X82326094Y-53316344D01*
X82264938Y-53544586D01*
X82264936Y-53544596D01*
X82244341Y-53779999D01*
X80700500Y-53779999D01*
X80700500Y-35051248D01*
X85973900Y-35051248D01*
X85973900Y-35255951D01*
X86005922Y-35458134D01*
X86069181Y-35652823D01*
X86162115Y-35835213D01*
X86282428Y-36000813D01*
X86427186Y-36145571D01*
X86582149Y-36258156D01*
X86592790Y-36265887D01*
X86709007Y-36325103D01*
X86775176Y-36358818D01*
X86775178Y-36358818D01*
X86775181Y-36358820D01*
X86879537Y-36392727D01*
X86969865Y-36422077D01*
X87070957Y-36438088D01*
X87172048Y-36454100D01*
X87172049Y-36454100D01*
X87376751Y-36454100D01*
X87376752Y-36454100D01*
X87578934Y-36422077D01*
X87773619Y-36358820D01*
X87956010Y-36265887D01*
X88048990Y-36198332D01*
X88121613Y-36145571D01*
X88121615Y-36145568D01*
X88121619Y-36145566D01*
X88266366Y-36000819D01*
X88266368Y-36000815D01*
X88266371Y-36000813D01*
X88319132Y-35928190D01*
X88386687Y-35835210D01*
X88479620Y-35652819D01*
X88542877Y-35458134D01*
X88574900Y-35255952D01*
X88574900Y-35051248D01*
X88542877Y-34849066D01*
X88479620Y-34654381D01*
X88479618Y-34654378D01*
X88479618Y-34654376D01*
X88445903Y-34588207D01*
X88386687Y-34471990D01*
X88378956Y-34461349D01*
X88266371Y-34306386D01*
X88121613Y-34161628D01*
X87956013Y-34041315D01*
X87956012Y-34041314D01*
X87956010Y-34041313D01*
X87899053Y-34012291D01*
X87773623Y-33948381D01*
X87578934Y-33885122D01*
X87404395Y-33857478D01*
X87376752Y-33853100D01*
X87172048Y-33853100D01*
X87147729Y-33856951D01*
X86969865Y-33885122D01*
X86775176Y-33948381D01*
X86592786Y-34041315D01*
X86427186Y-34161628D01*
X86282428Y-34306386D01*
X86162115Y-34471986D01*
X86069181Y-34654376D01*
X86005922Y-34849065D01*
X85973900Y-35051248D01*
X80700500Y-35051248D01*
X80700500Y-17024500D01*
X80720185Y-16957461D01*
X80772989Y-16911706D01*
X80824500Y-16900500D01*
X84767050Y-16900500D01*
X84822285Y-16916719D01*
G37*
%TD.AperFunction*%
%TD*%
M02*
