%TF.GenerationSoftware,KiCad,Pcbnew,8.0.4*%
%TF.CreationDate,2024-10-16T15:26:13-05:00*%
%TF.ProjectId,mic_dual_circuit,6d69635f-6475-4616-9c5f-636972637569,rev?*%
%TF.SameCoordinates,Original*%
%TF.FileFunction,Copper,L2,Inr*%
%TF.FilePolarity,Positive*%
%FSLAX46Y46*%
G04 Gerber Fmt 4.6, Leading zero omitted, Abs format (unit mm)*
G04 Created by KiCad (PCBNEW 8.0.4) date 2024-10-16 15:26:13*
%MOMM*%
%LPD*%
G01*
G04 APERTURE LIST*
%TA.AperFunction,ComponentPad*%
%ADD10R,1.700000X1.700000*%
%TD*%
%TA.AperFunction,ComponentPad*%
%ADD11O,1.700000X1.700000*%
%TD*%
%TA.AperFunction,ComponentPad*%
%ADD12C,1.700000*%
%TD*%
%TA.AperFunction,Conductor*%
%ADD13C,0.500000*%
%TD*%
G04 APERTURE END LIST*
D10*
%TO.N,gnd*%
%TO.C,REF\u002A\u002A*%
X82280000Y-18500000D03*
D11*
%TO.N,pwr*%
X84820000Y-18500000D03*
%TO.N,data*%
X87360000Y-18500000D03*
%TO.N,ws*%
X89900000Y-18500000D03*
%TO.N,sck*%
X92440000Y-18500000D03*
%TD*%
D10*
%TO.N,gnd*%
%TO.C,REF\u002A\u002A*%
X83600000Y-58860000D03*
D12*
%TO.N,pwr*%
X91200000Y-58940000D03*
X83600000Y-56320000D03*
%TO.N,ws*%
X91200000Y-56400000D03*
%TO.N,data*%
X83600000Y-53780000D03*
%TO.N,sck*%
X91200000Y-53860000D03*
%TD*%
D10*
%TO.N,gnd*%
%TO.C,REF\u002A\u002A*%
X82150000Y-174275000D03*
D11*
%TO.N,pwr*%
X84690000Y-174275000D03*
%TO.N,data*%
X87230000Y-174275000D03*
%TO.N,ws*%
X89770000Y-174275000D03*
%TO.N,sck*%
X92310000Y-174275000D03*
%TD*%
D10*
%TO.N,gnd*%
%TO.C,REF\u002A\u002A*%
X83600000Y-138860000D03*
D12*
X91200000Y-138940000D03*
%TO.N,pwr*%
X83600000Y-136320000D03*
%TO.N,ws*%
X91200000Y-136400000D03*
%TO.N,data*%
X83600000Y-133780000D03*
%TO.N,sck*%
X91200000Y-133860000D03*
%TD*%
D13*
%TO.N,data*%
X83600000Y-53780000D02*
X83769200Y-53610800D01*
X83769200Y-53610800D02*
X83769200Y-22090800D01*
X83769200Y-22090800D02*
X87360000Y-18500000D01*
X83600000Y-53780000D02*
X83642400Y-53822400D01*
%TO.N,sck*%
X91200000Y-53860000D02*
X92440000Y-52620000D01*
X92440000Y-52620000D02*
X92440000Y-18500000D01*
%TO.N,ws*%
X91200000Y-56400000D02*
X89900000Y-55100000D01*
X89900000Y-55100000D02*
X89900000Y-18500000D01*
%TO.N,sck*%
X91200000Y-133860000D02*
X92500000Y-132560000D01*
X92500000Y-132560000D02*
X92500000Y-55160000D01*
X92500000Y-55160000D02*
X91200000Y-53860000D01*
%TO.N,ws*%
X91200000Y-136400000D02*
X89900000Y-135100000D01*
X89900000Y-135100000D02*
X89900000Y-57700000D01*
X89900000Y-57700000D02*
X91200000Y-56400000D01*
%TO.N,data*%
X83600000Y-133780000D02*
X85496400Y-131883600D01*
X85496400Y-131883600D02*
X85496400Y-55676400D01*
X85496400Y-55676400D02*
X83600000Y-53780000D01*
X83600000Y-133780000D02*
X83600000Y-133892000D01*
X84900000Y-171945000D02*
X87230000Y-174275000D01*
X83600000Y-133892000D02*
X84900000Y-135192000D01*
X84900000Y-135192000D02*
X84900000Y-171945000D01*
%TO.N,sck*%
X92310000Y-174275000D02*
X93160000Y-173425000D01*
X93160000Y-173425000D02*
X93160000Y-135820000D01*
X93160000Y-135820000D02*
X91200000Y-133860000D01*
%TO.N,ws*%
X89770000Y-174275000D02*
X89770000Y-137830000D01*
X89770000Y-137830000D02*
X91200000Y-136400000D01*
%TD*%
M02*
