%TF.GenerationSoftware,KiCad,Pcbnew,8.0.4*%
%TF.CreationDate,2024-10-16T15:26:13-05:00*%
%TF.ProjectId,mic_dual_circuit,6d69635f-6475-4616-9c5f-636972637569,rev?*%
%TF.SameCoordinates,Original*%
%TF.FileFunction,Legend,Top*%
%TF.FilePolarity,Positive*%
%FSLAX46Y46*%
G04 Gerber Fmt 4.6, Leading zero omitted, Abs format (unit mm)*
G04 Created by KiCad (PCBNEW 8.0.4) date 2024-10-16 15:26:13*
%MOMM*%
%LPD*%
G01*
G04 APERTURE LIST*
%ADD10C,0.100000*%
%ADD11C,0.300000*%
%ADD12C,0.120000*%
G04 APERTURE END LIST*
D10*
X91353369Y-21059200D02*
X91429560Y-21106819D01*
X91429560Y-21106819D02*
X91581941Y-21106819D01*
X91581941Y-21106819D02*
X91658131Y-21059200D01*
X91658131Y-21059200D02*
X91696227Y-20963961D01*
X91696227Y-20963961D02*
X91696227Y-20916342D01*
X91696227Y-20916342D02*
X91658131Y-20821104D01*
X91658131Y-20821104D02*
X91581941Y-20773485D01*
X91581941Y-20773485D02*
X91467655Y-20773485D01*
X91467655Y-20773485D02*
X91391465Y-20725866D01*
X91391465Y-20725866D02*
X91353369Y-20630628D01*
X91353369Y-20630628D02*
X91353369Y-20583009D01*
X91353369Y-20583009D02*
X91391465Y-20487771D01*
X91391465Y-20487771D02*
X91467655Y-20440152D01*
X91467655Y-20440152D02*
X91581941Y-20440152D01*
X91581941Y-20440152D02*
X91658131Y-20487771D01*
X92381941Y-21059200D02*
X92305750Y-21106819D01*
X92305750Y-21106819D02*
X92153369Y-21106819D01*
X92153369Y-21106819D02*
X92077179Y-21059200D01*
X92077179Y-21059200D02*
X92039084Y-21011580D01*
X92039084Y-21011580D02*
X92000988Y-20916342D01*
X92000988Y-20916342D02*
X92000988Y-20630628D01*
X92000988Y-20630628D02*
X92039084Y-20535390D01*
X92039084Y-20535390D02*
X92077179Y-20487771D01*
X92077179Y-20487771D02*
X92153369Y-20440152D01*
X92153369Y-20440152D02*
X92305750Y-20440152D01*
X92305750Y-20440152D02*
X92381941Y-20487771D01*
X92724798Y-21106819D02*
X92724798Y-20106819D01*
X92800988Y-20725866D02*
X93029560Y-21106819D01*
X93029560Y-20440152D02*
X92724798Y-20821104D01*
X89181674Y-20440152D02*
X89334055Y-21106819D01*
X89334055Y-21106819D02*
X89486436Y-20630628D01*
X89486436Y-20630628D02*
X89638817Y-21106819D01*
X89638817Y-21106819D02*
X89791198Y-20440152D01*
X90057864Y-21059200D02*
X90134055Y-21106819D01*
X90134055Y-21106819D02*
X90286436Y-21106819D01*
X90286436Y-21106819D02*
X90362626Y-21059200D01*
X90362626Y-21059200D02*
X90400722Y-20963961D01*
X90400722Y-20963961D02*
X90400722Y-20916342D01*
X90400722Y-20916342D02*
X90362626Y-20821104D01*
X90362626Y-20821104D02*
X90286436Y-20773485D01*
X90286436Y-20773485D02*
X90172150Y-20773485D01*
X90172150Y-20773485D02*
X90095960Y-20725866D01*
X90095960Y-20725866D02*
X90057864Y-20630628D01*
X90057864Y-20630628D02*
X90057864Y-20583009D01*
X90057864Y-20583009D02*
X90095960Y-20487771D01*
X90095960Y-20487771D02*
X90172150Y-20440152D01*
X90172150Y-20440152D02*
X90286436Y-20440152D01*
X90286436Y-20440152D02*
X90362626Y-20487771D01*
X86501922Y-21106819D02*
X86501922Y-20106819D01*
X86501922Y-21059200D02*
X86425731Y-21106819D01*
X86425731Y-21106819D02*
X86273350Y-21106819D01*
X86273350Y-21106819D02*
X86197160Y-21059200D01*
X86197160Y-21059200D02*
X86159065Y-21011580D01*
X86159065Y-21011580D02*
X86120969Y-20916342D01*
X86120969Y-20916342D02*
X86120969Y-20630628D01*
X86120969Y-20630628D02*
X86159065Y-20535390D01*
X86159065Y-20535390D02*
X86197160Y-20487771D01*
X86197160Y-20487771D02*
X86273350Y-20440152D01*
X86273350Y-20440152D02*
X86425731Y-20440152D01*
X86425731Y-20440152D02*
X86501922Y-20487771D01*
X87225732Y-21106819D02*
X87225732Y-20583009D01*
X87225732Y-20583009D02*
X87187637Y-20487771D01*
X87187637Y-20487771D02*
X87111446Y-20440152D01*
X87111446Y-20440152D02*
X86959065Y-20440152D01*
X86959065Y-20440152D02*
X86882875Y-20487771D01*
X87225732Y-21059200D02*
X87149541Y-21106819D01*
X87149541Y-21106819D02*
X86959065Y-21106819D01*
X86959065Y-21106819D02*
X86882875Y-21059200D01*
X86882875Y-21059200D02*
X86844779Y-20963961D01*
X86844779Y-20963961D02*
X86844779Y-20868723D01*
X86844779Y-20868723D02*
X86882875Y-20773485D01*
X86882875Y-20773485D02*
X86959065Y-20725866D01*
X86959065Y-20725866D02*
X87149541Y-20725866D01*
X87149541Y-20725866D02*
X87225732Y-20678247D01*
X87492399Y-20440152D02*
X87797161Y-20440152D01*
X87606685Y-20106819D02*
X87606685Y-20963961D01*
X87606685Y-20963961D02*
X87644780Y-21059200D01*
X87644780Y-21059200D02*
X87720970Y-21106819D01*
X87720970Y-21106819D02*
X87797161Y-21106819D01*
X88406685Y-21106819D02*
X88406685Y-20583009D01*
X88406685Y-20583009D02*
X88368590Y-20487771D01*
X88368590Y-20487771D02*
X88292399Y-20440152D01*
X88292399Y-20440152D02*
X88140018Y-20440152D01*
X88140018Y-20440152D02*
X88063828Y-20487771D01*
X88406685Y-21059200D02*
X88330494Y-21106819D01*
X88330494Y-21106819D02*
X88140018Y-21106819D01*
X88140018Y-21106819D02*
X88063828Y-21059200D01*
X88063828Y-21059200D02*
X88025732Y-20963961D01*
X88025732Y-20963961D02*
X88025732Y-20868723D01*
X88025732Y-20868723D02*
X88063828Y-20773485D01*
X88063828Y-20773485D02*
X88140018Y-20725866D01*
X88140018Y-20725866D02*
X88330494Y-20725866D01*
X88330494Y-20725866D02*
X88406685Y-20678247D01*
X81523522Y-20440152D02*
X81523522Y-21249676D01*
X81523522Y-21249676D02*
X81485427Y-21344914D01*
X81485427Y-21344914D02*
X81447331Y-21392533D01*
X81447331Y-21392533D02*
X81371141Y-21440152D01*
X81371141Y-21440152D02*
X81256855Y-21440152D01*
X81256855Y-21440152D02*
X81180665Y-21392533D01*
X81523522Y-21059200D02*
X81447331Y-21106819D01*
X81447331Y-21106819D02*
X81294950Y-21106819D01*
X81294950Y-21106819D02*
X81218760Y-21059200D01*
X81218760Y-21059200D02*
X81180665Y-21011580D01*
X81180665Y-21011580D02*
X81142569Y-20916342D01*
X81142569Y-20916342D02*
X81142569Y-20630628D01*
X81142569Y-20630628D02*
X81180665Y-20535390D01*
X81180665Y-20535390D02*
X81218760Y-20487771D01*
X81218760Y-20487771D02*
X81294950Y-20440152D01*
X81294950Y-20440152D02*
X81447331Y-20440152D01*
X81447331Y-20440152D02*
X81523522Y-20487771D01*
X81904475Y-20440152D02*
X81904475Y-21106819D01*
X81904475Y-20535390D02*
X81942570Y-20487771D01*
X81942570Y-20487771D02*
X82018760Y-20440152D01*
X82018760Y-20440152D02*
X82133046Y-20440152D01*
X82133046Y-20440152D02*
X82209237Y-20487771D01*
X82209237Y-20487771D02*
X82247332Y-20583009D01*
X82247332Y-20583009D02*
X82247332Y-21106819D01*
X82971142Y-21106819D02*
X82971142Y-20106819D01*
X82971142Y-21059200D02*
X82894951Y-21106819D01*
X82894951Y-21106819D02*
X82742570Y-21106819D01*
X82742570Y-21106819D02*
X82666380Y-21059200D01*
X82666380Y-21059200D02*
X82628285Y-21011580D01*
X82628285Y-21011580D02*
X82590189Y-20916342D01*
X82590189Y-20916342D02*
X82590189Y-20630628D01*
X82590189Y-20630628D02*
X82628285Y-20535390D01*
X82628285Y-20535390D02*
X82666380Y-20487771D01*
X82666380Y-20487771D02*
X82742570Y-20440152D01*
X82742570Y-20440152D02*
X82894951Y-20440152D01*
X82894951Y-20440152D02*
X82971142Y-20487771D01*
X83733365Y-20440152D02*
X83733365Y-21440152D01*
X83733365Y-20487771D02*
X83809555Y-20440152D01*
X83809555Y-20440152D02*
X83961936Y-20440152D01*
X83961936Y-20440152D02*
X84038127Y-20487771D01*
X84038127Y-20487771D02*
X84076222Y-20535390D01*
X84076222Y-20535390D02*
X84114317Y-20630628D01*
X84114317Y-20630628D02*
X84114317Y-20916342D01*
X84114317Y-20916342D02*
X84076222Y-21011580D01*
X84076222Y-21011580D02*
X84038127Y-21059200D01*
X84038127Y-21059200D02*
X83961936Y-21106819D01*
X83961936Y-21106819D02*
X83809555Y-21106819D01*
X83809555Y-21106819D02*
X83733365Y-21059200D01*
X84380984Y-20440152D02*
X84533365Y-21106819D01*
X84533365Y-21106819D02*
X84685746Y-20630628D01*
X84685746Y-20630628D02*
X84838127Y-21106819D01*
X84838127Y-21106819D02*
X84990508Y-20440152D01*
X85295270Y-21106819D02*
X85295270Y-20440152D01*
X85295270Y-20630628D02*
X85333365Y-20535390D01*
X85333365Y-20535390D02*
X85371460Y-20487771D01*
X85371460Y-20487771D02*
X85447651Y-20440152D01*
X85447651Y-20440152D02*
X85523841Y-20440152D01*
X84174167Y-45923200D02*
X90678000Y-45923200D01*
X90678000Y-49683833D01*
X84174167Y-49683833D01*
X84174167Y-45923200D01*
X84225683Y-126034800D02*
X90729516Y-126034800D01*
X90729516Y-129795433D01*
X84225683Y-129795433D01*
X84225683Y-126034800D01*
X80822800Y-21894800D02*
X80822800Y-170586400D01*
X93980000Y-21894800D02*
X93980000Y-170637200D01*
D11*
X86246015Y-128631961D02*
X86150777Y-128727200D01*
X86150777Y-128727200D02*
X85865063Y-128822438D01*
X85865063Y-128822438D02*
X85674587Y-128822438D01*
X85674587Y-128822438D02*
X85388872Y-128727200D01*
X85388872Y-128727200D02*
X85198396Y-128536723D01*
X85198396Y-128536723D02*
X85103158Y-128346247D01*
X85103158Y-128346247D02*
X85007920Y-127965295D01*
X85007920Y-127965295D02*
X85007920Y-127679580D01*
X85007920Y-127679580D02*
X85103158Y-127298628D01*
X85103158Y-127298628D02*
X85198396Y-127108152D01*
X85198396Y-127108152D02*
X85388872Y-126917676D01*
X85388872Y-126917676D02*
X85674587Y-126822438D01*
X85674587Y-126822438D02*
X85865063Y-126822438D01*
X85865063Y-126822438D02*
X86150777Y-126917676D01*
X86150777Y-126917676D02*
X86246015Y-127012914D01*
X87103158Y-128822438D02*
X87103158Y-126822438D01*
X87960301Y-128822438D02*
X87960301Y-127774819D01*
X87960301Y-127774819D02*
X87865063Y-127584342D01*
X87865063Y-127584342D02*
X87674587Y-127489104D01*
X87674587Y-127489104D02*
X87388872Y-127489104D01*
X87388872Y-127489104D02*
X87198396Y-127584342D01*
X87198396Y-127584342D02*
X87103158Y-127679580D01*
X88817444Y-127012914D02*
X88912682Y-126917676D01*
X88912682Y-126917676D02*
X89103158Y-126822438D01*
X89103158Y-126822438D02*
X89579349Y-126822438D01*
X89579349Y-126822438D02*
X89769825Y-126917676D01*
X89769825Y-126917676D02*
X89865063Y-127012914D01*
X89865063Y-127012914D02*
X89960301Y-127203390D01*
X89960301Y-127203390D02*
X89960301Y-127393866D01*
X89960301Y-127393866D02*
X89865063Y-127679580D01*
X89865063Y-127679580D02*
X88722206Y-128822438D01*
X88722206Y-128822438D02*
X89960301Y-128822438D01*
D10*
X83784165Y-171671752D02*
X83784165Y-172671752D01*
X83784165Y-171719371D02*
X83860355Y-171671752D01*
X83860355Y-171671752D02*
X84012736Y-171671752D01*
X84012736Y-171671752D02*
X84088927Y-171719371D01*
X84088927Y-171719371D02*
X84127022Y-171766990D01*
X84127022Y-171766990D02*
X84165117Y-171862228D01*
X84165117Y-171862228D02*
X84165117Y-172147942D01*
X84165117Y-172147942D02*
X84127022Y-172243180D01*
X84127022Y-172243180D02*
X84088927Y-172290800D01*
X84088927Y-172290800D02*
X84012736Y-172338419D01*
X84012736Y-172338419D02*
X83860355Y-172338419D01*
X83860355Y-172338419D02*
X83784165Y-172290800D01*
X84431784Y-171671752D02*
X84584165Y-172338419D01*
X84584165Y-172338419D02*
X84736546Y-171862228D01*
X84736546Y-171862228D02*
X84888927Y-172338419D01*
X84888927Y-172338419D02*
X85041308Y-171671752D01*
X85346070Y-172338419D02*
X85346070Y-171671752D01*
X85346070Y-171862228D02*
X85384165Y-171766990D01*
X85384165Y-171766990D02*
X85422260Y-171719371D01*
X85422260Y-171719371D02*
X85498451Y-171671752D01*
X85498451Y-171671752D02*
X85574641Y-171671752D01*
X81574322Y-171671752D02*
X81574322Y-172481276D01*
X81574322Y-172481276D02*
X81536227Y-172576514D01*
X81536227Y-172576514D02*
X81498131Y-172624133D01*
X81498131Y-172624133D02*
X81421941Y-172671752D01*
X81421941Y-172671752D02*
X81307655Y-172671752D01*
X81307655Y-172671752D02*
X81231465Y-172624133D01*
X81574322Y-172290800D02*
X81498131Y-172338419D01*
X81498131Y-172338419D02*
X81345750Y-172338419D01*
X81345750Y-172338419D02*
X81269560Y-172290800D01*
X81269560Y-172290800D02*
X81231465Y-172243180D01*
X81231465Y-172243180D02*
X81193369Y-172147942D01*
X81193369Y-172147942D02*
X81193369Y-171862228D01*
X81193369Y-171862228D02*
X81231465Y-171766990D01*
X81231465Y-171766990D02*
X81269560Y-171719371D01*
X81269560Y-171719371D02*
X81345750Y-171671752D01*
X81345750Y-171671752D02*
X81498131Y-171671752D01*
X81498131Y-171671752D02*
X81574322Y-171719371D01*
X81955275Y-171671752D02*
X81955275Y-172338419D01*
X81955275Y-171766990D02*
X81993370Y-171719371D01*
X81993370Y-171719371D02*
X82069560Y-171671752D01*
X82069560Y-171671752D02*
X82183846Y-171671752D01*
X82183846Y-171671752D02*
X82260037Y-171719371D01*
X82260037Y-171719371D02*
X82298132Y-171814609D01*
X82298132Y-171814609D02*
X82298132Y-172338419D01*
X83021942Y-172338419D02*
X83021942Y-171338419D01*
X83021942Y-172290800D02*
X82945751Y-172338419D01*
X82945751Y-172338419D02*
X82793370Y-172338419D01*
X82793370Y-172338419D02*
X82717180Y-172290800D01*
X82717180Y-172290800D02*
X82679085Y-172243180D01*
X82679085Y-172243180D02*
X82640989Y-172147942D01*
X82640989Y-172147942D02*
X82640989Y-171862228D01*
X82640989Y-171862228D02*
X82679085Y-171766990D01*
X82679085Y-171766990D02*
X82717180Y-171719371D01*
X82717180Y-171719371D02*
X82793370Y-171671752D01*
X82793370Y-171671752D02*
X82945751Y-171671752D01*
X82945751Y-171671752D02*
X83021942Y-171719371D01*
X86552722Y-172338419D02*
X86552722Y-171338419D01*
X86552722Y-172290800D02*
X86476531Y-172338419D01*
X86476531Y-172338419D02*
X86324150Y-172338419D01*
X86324150Y-172338419D02*
X86247960Y-172290800D01*
X86247960Y-172290800D02*
X86209865Y-172243180D01*
X86209865Y-172243180D02*
X86171769Y-172147942D01*
X86171769Y-172147942D02*
X86171769Y-171862228D01*
X86171769Y-171862228D02*
X86209865Y-171766990D01*
X86209865Y-171766990D02*
X86247960Y-171719371D01*
X86247960Y-171719371D02*
X86324150Y-171671752D01*
X86324150Y-171671752D02*
X86476531Y-171671752D01*
X86476531Y-171671752D02*
X86552722Y-171719371D01*
X87276532Y-172338419D02*
X87276532Y-171814609D01*
X87276532Y-171814609D02*
X87238437Y-171719371D01*
X87238437Y-171719371D02*
X87162246Y-171671752D01*
X87162246Y-171671752D02*
X87009865Y-171671752D01*
X87009865Y-171671752D02*
X86933675Y-171719371D01*
X87276532Y-172290800D02*
X87200341Y-172338419D01*
X87200341Y-172338419D02*
X87009865Y-172338419D01*
X87009865Y-172338419D02*
X86933675Y-172290800D01*
X86933675Y-172290800D02*
X86895579Y-172195561D01*
X86895579Y-172195561D02*
X86895579Y-172100323D01*
X86895579Y-172100323D02*
X86933675Y-172005085D01*
X86933675Y-172005085D02*
X87009865Y-171957466D01*
X87009865Y-171957466D02*
X87200341Y-171957466D01*
X87200341Y-171957466D02*
X87276532Y-171909847D01*
X87543199Y-171671752D02*
X87847961Y-171671752D01*
X87657485Y-171338419D02*
X87657485Y-172195561D01*
X87657485Y-172195561D02*
X87695580Y-172290800D01*
X87695580Y-172290800D02*
X87771770Y-172338419D01*
X87771770Y-172338419D02*
X87847961Y-172338419D01*
X88457485Y-172338419D02*
X88457485Y-171814609D01*
X88457485Y-171814609D02*
X88419390Y-171719371D01*
X88419390Y-171719371D02*
X88343199Y-171671752D01*
X88343199Y-171671752D02*
X88190818Y-171671752D01*
X88190818Y-171671752D02*
X88114628Y-171719371D01*
X88457485Y-172290800D02*
X88381294Y-172338419D01*
X88381294Y-172338419D02*
X88190818Y-172338419D01*
X88190818Y-172338419D02*
X88114628Y-172290800D01*
X88114628Y-172290800D02*
X88076532Y-172195561D01*
X88076532Y-172195561D02*
X88076532Y-172100323D01*
X88076532Y-172100323D02*
X88114628Y-172005085D01*
X88114628Y-172005085D02*
X88190818Y-171957466D01*
X88190818Y-171957466D02*
X88381294Y-171957466D01*
X88381294Y-171957466D02*
X88457485Y-171909847D01*
X89232474Y-171671752D02*
X89384855Y-172338419D01*
X89384855Y-172338419D02*
X89537236Y-171862228D01*
X89537236Y-171862228D02*
X89689617Y-172338419D01*
X89689617Y-172338419D02*
X89841998Y-171671752D01*
X90108664Y-172290800D02*
X90184855Y-172338419D01*
X90184855Y-172338419D02*
X90337236Y-172338419D01*
X90337236Y-172338419D02*
X90413426Y-172290800D01*
X90413426Y-172290800D02*
X90451522Y-172195561D01*
X90451522Y-172195561D02*
X90451522Y-172147942D01*
X90451522Y-172147942D02*
X90413426Y-172052704D01*
X90413426Y-172052704D02*
X90337236Y-172005085D01*
X90337236Y-172005085D02*
X90222950Y-172005085D01*
X90222950Y-172005085D02*
X90146760Y-171957466D01*
X90146760Y-171957466D02*
X90108664Y-171862228D01*
X90108664Y-171862228D02*
X90108664Y-171814609D01*
X90108664Y-171814609D02*
X90146760Y-171719371D01*
X90146760Y-171719371D02*
X90222950Y-171671752D01*
X90222950Y-171671752D02*
X90337236Y-171671752D01*
X90337236Y-171671752D02*
X90413426Y-171719371D01*
X91404169Y-172290800D02*
X91480360Y-172338419D01*
X91480360Y-172338419D02*
X91632741Y-172338419D01*
X91632741Y-172338419D02*
X91708931Y-172290800D01*
X91708931Y-172290800D02*
X91747027Y-172195561D01*
X91747027Y-172195561D02*
X91747027Y-172147942D01*
X91747027Y-172147942D02*
X91708931Y-172052704D01*
X91708931Y-172052704D02*
X91632741Y-172005085D01*
X91632741Y-172005085D02*
X91518455Y-172005085D01*
X91518455Y-172005085D02*
X91442265Y-171957466D01*
X91442265Y-171957466D02*
X91404169Y-171862228D01*
X91404169Y-171862228D02*
X91404169Y-171814609D01*
X91404169Y-171814609D02*
X91442265Y-171719371D01*
X91442265Y-171719371D02*
X91518455Y-171671752D01*
X91518455Y-171671752D02*
X91632741Y-171671752D01*
X91632741Y-171671752D02*
X91708931Y-171719371D01*
X92432741Y-172290800D02*
X92356550Y-172338419D01*
X92356550Y-172338419D02*
X92204169Y-172338419D01*
X92204169Y-172338419D02*
X92127979Y-172290800D01*
X92127979Y-172290800D02*
X92089884Y-172243180D01*
X92089884Y-172243180D02*
X92051788Y-172147942D01*
X92051788Y-172147942D02*
X92051788Y-171862228D01*
X92051788Y-171862228D02*
X92089884Y-171766990D01*
X92089884Y-171766990D02*
X92127979Y-171719371D01*
X92127979Y-171719371D02*
X92204169Y-171671752D01*
X92204169Y-171671752D02*
X92356550Y-171671752D01*
X92356550Y-171671752D02*
X92432741Y-171719371D01*
X92775598Y-172338419D02*
X92775598Y-171338419D01*
X92851788Y-171957466D02*
X93080360Y-172338419D01*
X93080360Y-171671752D02*
X92775598Y-172052704D01*
D11*
X86347615Y-48621961D02*
X86252377Y-48717200D01*
X86252377Y-48717200D02*
X85966663Y-48812438D01*
X85966663Y-48812438D02*
X85776187Y-48812438D01*
X85776187Y-48812438D02*
X85490472Y-48717200D01*
X85490472Y-48717200D02*
X85299996Y-48526723D01*
X85299996Y-48526723D02*
X85204758Y-48336247D01*
X85204758Y-48336247D02*
X85109520Y-47955295D01*
X85109520Y-47955295D02*
X85109520Y-47669580D01*
X85109520Y-47669580D02*
X85204758Y-47288628D01*
X85204758Y-47288628D02*
X85299996Y-47098152D01*
X85299996Y-47098152D02*
X85490472Y-46907676D01*
X85490472Y-46907676D02*
X85776187Y-46812438D01*
X85776187Y-46812438D02*
X85966663Y-46812438D01*
X85966663Y-46812438D02*
X86252377Y-46907676D01*
X86252377Y-46907676D02*
X86347615Y-47002914D01*
X87204758Y-48812438D02*
X87204758Y-46812438D01*
X88061901Y-48812438D02*
X88061901Y-47764819D01*
X88061901Y-47764819D02*
X87966663Y-47574342D01*
X87966663Y-47574342D02*
X87776187Y-47479104D01*
X87776187Y-47479104D02*
X87490472Y-47479104D01*
X87490472Y-47479104D02*
X87299996Y-47574342D01*
X87299996Y-47574342D02*
X87204758Y-47669580D01*
X90061901Y-48812438D02*
X88919044Y-48812438D01*
X89490472Y-48812438D02*
X89490472Y-46812438D01*
X89490472Y-46812438D02*
X89299996Y-47098152D01*
X89299996Y-47098152D02*
X89109520Y-47288628D01*
X89109520Y-47288628D02*
X88919044Y-47383866D01*
D10*
X88830074Y-56173561D02*
X88982455Y-56706895D01*
X88982455Y-56706895D02*
X89134836Y-56325942D01*
X89134836Y-56325942D02*
X89287217Y-56706895D01*
X89287217Y-56706895D02*
X89439598Y-56173561D01*
X89706264Y-56668800D02*
X89782455Y-56706895D01*
X89782455Y-56706895D02*
X89934836Y-56706895D01*
X89934836Y-56706895D02*
X90011026Y-56668800D01*
X90011026Y-56668800D02*
X90049122Y-56592609D01*
X90049122Y-56592609D02*
X90049122Y-56554514D01*
X90049122Y-56554514D02*
X90011026Y-56478323D01*
X90011026Y-56478323D02*
X89934836Y-56440228D01*
X89934836Y-56440228D02*
X89820550Y-56440228D01*
X89820550Y-56440228D02*
X89744360Y-56402133D01*
X89744360Y-56402133D02*
X89706264Y-56325942D01*
X89706264Y-56325942D02*
X89706264Y-56287847D01*
X89706264Y-56287847D02*
X89744360Y-56211657D01*
X89744360Y-56211657D02*
X89820550Y-56173561D01*
X89820550Y-56173561D02*
X89934836Y-56173561D01*
X89934836Y-56173561D02*
X90011026Y-56211657D01*
X88418169Y-54068800D02*
X88494360Y-54106895D01*
X88494360Y-54106895D02*
X88646741Y-54106895D01*
X88646741Y-54106895D02*
X88722931Y-54068800D01*
X88722931Y-54068800D02*
X88761027Y-53992609D01*
X88761027Y-53992609D02*
X88761027Y-53954514D01*
X88761027Y-53954514D02*
X88722931Y-53878323D01*
X88722931Y-53878323D02*
X88646741Y-53840228D01*
X88646741Y-53840228D02*
X88532455Y-53840228D01*
X88532455Y-53840228D02*
X88456265Y-53802133D01*
X88456265Y-53802133D02*
X88418169Y-53725942D01*
X88418169Y-53725942D02*
X88418169Y-53687847D01*
X88418169Y-53687847D02*
X88456265Y-53611657D01*
X88456265Y-53611657D02*
X88532455Y-53573561D01*
X88532455Y-53573561D02*
X88646741Y-53573561D01*
X88646741Y-53573561D02*
X88722931Y-53611657D01*
X89446741Y-54068800D02*
X89370550Y-54106895D01*
X89370550Y-54106895D02*
X89218169Y-54106895D01*
X89218169Y-54106895D02*
X89141979Y-54068800D01*
X89141979Y-54068800D02*
X89103884Y-54030704D01*
X89103884Y-54030704D02*
X89065788Y-53954514D01*
X89065788Y-53954514D02*
X89065788Y-53725942D01*
X89065788Y-53725942D02*
X89103884Y-53649752D01*
X89103884Y-53649752D02*
X89141979Y-53611657D01*
X89141979Y-53611657D02*
X89218169Y-53573561D01*
X89218169Y-53573561D02*
X89370550Y-53573561D01*
X89370550Y-53573561D02*
X89446741Y-53611657D01*
X89789598Y-54106895D02*
X89789598Y-53306895D01*
X89865788Y-53802133D02*
X90094360Y-54106895D01*
X90094360Y-53573561D02*
X89789598Y-53878323D01*
X84618169Y-54018800D02*
X84694360Y-54056895D01*
X84694360Y-54056895D02*
X84846741Y-54056895D01*
X84846741Y-54056895D02*
X84922931Y-54018800D01*
X84922931Y-54018800D02*
X84961027Y-53942609D01*
X84961027Y-53942609D02*
X84961027Y-53904514D01*
X84961027Y-53904514D02*
X84922931Y-53828323D01*
X84922931Y-53828323D02*
X84846741Y-53790228D01*
X84846741Y-53790228D02*
X84732455Y-53790228D01*
X84732455Y-53790228D02*
X84656265Y-53752133D01*
X84656265Y-53752133D02*
X84618169Y-53675942D01*
X84618169Y-53675942D02*
X84618169Y-53637847D01*
X84618169Y-53637847D02*
X84656265Y-53561657D01*
X84656265Y-53561657D02*
X84732455Y-53523561D01*
X84732455Y-53523561D02*
X84846741Y-53523561D01*
X84846741Y-53523561D02*
X84922931Y-53561657D01*
X85646741Y-54056895D02*
X85646741Y-53256895D01*
X85646741Y-54018800D02*
X85570550Y-54056895D01*
X85570550Y-54056895D02*
X85418169Y-54056895D01*
X85418169Y-54056895D02*
X85341979Y-54018800D01*
X85341979Y-54018800D02*
X85303884Y-53980704D01*
X85303884Y-53980704D02*
X85265788Y-53904514D01*
X85265788Y-53904514D02*
X85265788Y-53675942D01*
X85265788Y-53675942D02*
X85303884Y-53599752D01*
X85303884Y-53599752D02*
X85341979Y-53561657D01*
X85341979Y-53561657D02*
X85418169Y-53523561D01*
X85418169Y-53523561D02*
X85570550Y-53523561D01*
X85570550Y-53523561D02*
X85646741Y-53561657D01*
X89287217Y-59306895D02*
X88906265Y-59306895D01*
X88906265Y-59306895D02*
X88906265Y-58506895D01*
X90011027Y-59306895D02*
X89744360Y-58925942D01*
X89553884Y-59306895D02*
X89553884Y-58506895D01*
X89553884Y-58506895D02*
X89858646Y-58506895D01*
X89858646Y-58506895D02*
X89934836Y-58544990D01*
X89934836Y-58544990D02*
X89972931Y-58583085D01*
X89972931Y-58583085D02*
X90011027Y-58659276D01*
X90011027Y-58659276D02*
X90011027Y-58773561D01*
X90011027Y-58773561D02*
X89972931Y-58849752D01*
X89972931Y-58849752D02*
X89934836Y-58887847D01*
X89934836Y-58887847D02*
X89858646Y-58925942D01*
X89858646Y-58925942D02*
X89553884Y-58925942D01*
X85049122Y-58673561D02*
X85049122Y-59321180D01*
X85049122Y-59321180D02*
X85011027Y-59397371D01*
X85011027Y-59397371D02*
X84972931Y-59435466D01*
X84972931Y-59435466D02*
X84896741Y-59473561D01*
X84896741Y-59473561D02*
X84782455Y-59473561D01*
X84782455Y-59473561D02*
X84706265Y-59435466D01*
X85049122Y-59168800D02*
X84972931Y-59206895D01*
X84972931Y-59206895D02*
X84820550Y-59206895D01*
X84820550Y-59206895D02*
X84744360Y-59168800D01*
X84744360Y-59168800D02*
X84706265Y-59130704D01*
X84706265Y-59130704D02*
X84668169Y-59054514D01*
X84668169Y-59054514D02*
X84668169Y-58825942D01*
X84668169Y-58825942D02*
X84706265Y-58749752D01*
X84706265Y-58749752D02*
X84744360Y-58711657D01*
X84744360Y-58711657D02*
X84820550Y-58673561D01*
X84820550Y-58673561D02*
X84972931Y-58673561D01*
X84972931Y-58673561D02*
X85049122Y-58711657D01*
X85430075Y-58673561D02*
X85430075Y-59206895D01*
X85430075Y-58749752D02*
X85468170Y-58711657D01*
X85468170Y-58711657D02*
X85544360Y-58673561D01*
X85544360Y-58673561D02*
X85658646Y-58673561D01*
X85658646Y-58673561D02*
X85734837Y-58711657D01*
X85734837Y-58711657D02*
X85772932Y-58787847D01*
X85772932Y-58787847D02*
X85772932Y-59206895D01*
X86496742Y-59206895D02*
X86496742Y-58406895D01*
X86496742Y-59168800D02*
X86420551Y-59206895D01*
X86420551Y-59206895D02*
X86268170Y-59206895D01*
X86268170Y-59206895D02*
X86191980Y-59168800D01*
X86191980Y-59168800D02*
X86153885Y-59130704D01*
X86153885Y-59130704D02*
X86115789Y-59054514D01*
X86115789Y-59054514D02*
X86115789Y-58825942D01*
X86115789Y-58825942D02*
X86153885Y-58749752D01*
X86153885Y-58749752D02*
X86191980Y-58711657D01*
X86191980Y-58711657D02*
X86268170Y-58673561D01*
X86268170Y-58673561D02*
X86420551Y-58673561D01*
X86420551Y-58673561D02*
X86496742Y-58711657D01*
X84656265Y-56073561D02*
X84656265Y-56873561D01*
X84656265Y-56111657D02*
X84732455Y-56073561D01*
X84732455Y-56073561D02*
X84884836Y-56073561D01*
X84884836Y-56073561D02*
X84961027Y-56111657D01*
X84961027Y-56111657D02*
X84999122Y-56149752D01*
X84999122Y-56149752D02*
X85037217Y-56225942D01*
X85037217Y-56225942D02*
X85037217Y-56454514D01*
X85037217Y-56454514D02*
X84999122Y-56530704D01*
X84999122Y-56530704D02*
X84961027Y-56568800D01*
X84961027Y-56568800D02*
X84884836Y-56606895D01*
X84884836Y-56606895D02*
X84732455Y-56606895D01*
X84732455Y-56606895D02*
X84656265Y-56568800D01*
X85303884Y-56073561D02*
X85456265Y-56606895D01*
X85456265Y-56606895D02*
X85608646Y-56225942D01*
X85608646Y-56225942D02*
X85761027Y-56606895D01*
X85761027Y-56606895D02*
X85913408Y-56073561D01*
X86218170Y-56606895D02*
X86218170Y-56073561D01*
X86218170Y-56225942D02*
X86256265Y-56149752D01*
X86256265Y-56149752D02*
X86294360Y-56111657D01*
X86294360Y-56111657D02*
X86370551Y-56073561D01*
X86370551Y-56073561D02*
X86446741Y-56073561D01*
X84656265Y-136073561D02*
X84656265Y-136873561D01*
X84656265Y-136111657D02*
X84732455Y-136073561D01*
X84732455Y-136073561D02*
X84884836Y-136073561D01*
X84884836Y-136073561D02*
X84961027Y-136111657D01*
X84961027Y-136111657D02*
X84999122Y-136149752D01*
X84999122Y-136149752D02*
X85037217Y-136225942D01*
X85037217Y-136225942D02*
X85037217Y-136454514D01*
X85037217Y-136454514D02*
X84999122Y-136530704D01*
X84999122Y-136530704D02*
X84961027Y-136568800D01*
X84961027Y-136568800D02*
X84884836Y-136606895D01*
X84884836Y-136606895D02*
X84732455Y-136606895D01*
X84732455Y-136606895D02*
X84656265Y-136568800D01*
X85303884Y-136073561D02*
X85456265Y-136606895D01*
X85456265Y-136606895D02*
X85608646Y-136225942D01*
X85608646Y-136225942D02*
X85761027Y-136606895D01*
X85761027Y-136606895D02*
X85913408Y-136073561D01*
X86218170Y-136606895D02*
X86218170Y-136073561D01*
X86218170Y-136225942D02*
X86256265Y-136149752D01*
X86256265Y-136149752D02*
X86294360Y-136111657D01*
X86294360Y-136111657D02*
X86370551Y-136073561D01*
X86370551Y-136073561D02*
X86446741Y-136073561D01*
X85049122Y-138673561D02*
X85049122Y-139321180D01*
X85049122Y-139321180D02*
X85011027Y-139397371D01*
X85011027Y-139397371D02*
X84972931Y-139435466D01*
X84972931Y-139435466D02*
X84896741Y-139473561D01*
X84896741Y-139473561D02*
X84782455Y-139473561D01*
X84782455Y-139473561D02*
X84706265Y-139435466D01*
X85049122Y-139168800D02*
X84972931Y-139206895D01*
X84972931Y-139206895D02*
X84820550Y-139206895D01*
X84820550Y-139206895D02*
X84744360Y-139168800D01*
X84744360Y-139168800D02*
X84706265Y-139130704D01*
X84706265Y-139130704D02*
X84668169Y-139054514D01*
X84668169Y-139054514D02*
X84668169Y-138825942D01*
X84668169Y-138825942D02*
X84706265Y-138749752D01*
X84706265Y-138749752D02*
X84744360Y-138711657D01*
X84744360Y-138711657D02*
X84820550Y-138673561D01*
X84820550Y-138673561D02*
X84972931Y-138673561D01*
X84972931Y-138673561D02*
X85049122Y-138711657D01*
X85430075Y-138673561D02*
X85430075Y-139206895D01*
X85430075Y-138749752D02*
X85468170Y-138711657D01*
X85468170Y-138711657D02*
X85544360Y-138673561D01*
X85544360Y-138673561D02*
X85658646Y-138673561D01*
X85658646Y-138673561D02*
X85734837Y-138711657D01*
X85734837Y-138711657D02*
X85772932Y-138787847D01*
X85772932Y-138787847D02*
X85772932Y-139206895D01*
X86496742Y-139206895D02*
X86496742Y-138406895D01*
X86496742Y-139168800D02*
X86420551Y-139206895D01*
X86420551Y-139206895D02*
X86268170Y-139206895D01*
X86268170Y-139206895D02*
X86191980Y-139168800D01*
X86191980Y-139168800D02*
X86153885Y-139130704D01*
X86153885Y-139130704D02*
X86115789Y-139054514D01*
X86115789Y-139054514D02*
X86115789Y-138825942D01*
X86115789Y-138825942D02*
X86153885Y-138749752D01*
X86153885Y-138749752D02*
X86191980Y-138711657D01*
X86191980Y-138711657D02*
X86268170Y-138673561D01*
X86268170Y-138673561D02*
X86420551Y-138673561D01*
X86420551Y-138673561D02*
X86496742Y-138711657D01*
X88830074Y-136173561D02*
X88982455Y-136706895D01*
X88982455Y-136706895D02*
X89134836Y-136325942D01*
X89134836Y-136325942D02*
X89287217Y-136706895D01*
X89287217Y-136706895D02*
X89439598Y-136173561D01*
X89706264Y-136668800D02*
X89782455Y-136706895D01*
X89782455Y-136706895D02*
X89934836Y-136706895D01*
X89934836Y-136706895D02*
X90011026Y-136668800D01*
X90011026Y-136668800D02*
X90049122Y-136592609D01*
X90049122Y-136592609D02*
X90049122Y-136554514D01*
X90049122Y-136554514D02*
X90011026Y-136478323D01*
X90011026Y-136478323D02*
X89934836Y-136440228D01*
X89934836Y-136440228D02*
X89820550Y-136440228D01*
X89820550Y-136440228D02*
X89744360Y-136402133D01*
X89744360Y-136402133D02*
X89706264Y-136325942D01*
X89706264Y-136325942D02*
X89706264Y-136287847D01*
X89706264Y-136287847D02*
X89744360Y-136211657D01*
X89744360Y-136211657D02*
X89820550Y-136173561D01*
X89820550Y-136173561D02*
X89934836Y-136173561D01*
X89934836Y-136173561D02*
X90011026Y-136211657D01*
X89287217Y-139306895D02*
X88906265Y-139306895D01*
X88906265Y-139306895D02*
X88906265Y-138506895D01*
X90011027Y-139306895D02*
X89744360Y-138925942D01*
X89553884Y-139306895D02*
X89553884Y-138506895D01*
X89553884Y-138506895D02*
X89858646Y-138506895D01*
X89858646Y-138506895D02*
X89934836Y-138544990D01*
X89934836Y-138544990D02*
X89972931Y-138583085D01*
X89972931Y-138583085D02*
X90011027Y-138659276D01*
X90011027Y-138659276D02*
X90011027Y-138773561D01*
X90011027Y-138773561D02*
X89972931Y-138849752D01*
X89972931Y-138849752D02*
X89934836Y-138887847D01*
X89934836Y-138887847D02*
X89858646Y-138925942D01*
X89858646Y-138925942D02*
X89553884Y-138925942D01*
X84618169Y-134018800D02*
X84694360Y-134056895D01*
X84694360Y-134056895D02*
X84846741Y-134056895D01*
X84846741Y-134056895D02*
X84922931Y-134018800D01*
X84922931Y-134018800D02*
X84961027Y-133942609D01*
X84961027Y-133942609D02*
X84961027Y-133904514D01*
X84961027Y-133904514D02*
X84922931Y-133828323D01*
X84922931Y-133828323D02*
X84846741Y-133790228D01*
X84846741Y-133790228D02*
X84732455Y-133790228D01*
X84732455Y-133790228D02*
X84656265Y-133752133D01*
X84656265Y-133752133D02*
X84618169Y-133675942D01*
X84618169Y-133675942D02*
X84618169Y-133637847D01*
X84618169Y-133637847D02*
X84656265Y-133561657D01*
X84656265Y-133561657D02*
X84732455Y-133523561D01*
X84732455Y-133523561D02*
X84846741Y-133523561D01*
X84846741Y-133523561D02*
X84922931Y-133561657D01*
X85646741Y-134056895D02*
X85646741Y-133256895D01*
X85646741Y-134018800D02*
X85570550Y-134056895D01*
X85570550Y-134056895D02*
X85418169Y-134056895D01*
X85418169Y-134056895D02*
X85341979Y-134018800D01*
X85341979Y-134018800D02*
X85303884Y-133980704D01*
X85303884Y-133980704D02*
X85265788Y-133904514D01*
X85265788Y-133904514D02*
X85265788Y-133675942D01*
X85265788Y-133675942D02*
X85303884Y-133599752D01*
X85303884Y-133599752D02*
X85341979Y-133561657D01*
X85341979Y-133561657D02*
X85418169Y-133523561D01*
X85418169Y-133523561D02*
X85570550Y-133523561D01*
X85570550Y-133523561D02*
X85646741Y-133561657D01*
X88418169Y-134068800D02*
X88494360Y-134106895D01*
X88494360Y-134106895D02*
X88646741Y-134106895D01*
X88646741Y-134106895D02*
X88722931Y-134068800D01*
X88722931Y-134068800D02*
X88761027Y-133992609D01*
X88761027Y-133992609D02*
X88761027Y-133954514D01*
X88761027Y-133954514D02*
X88722931Y-133878323D01*
X88722931Y-133878323D02*
X88646741Y-133840228D01*
X88646741Y-133840228D02*
X88532455Y-133840228D01*
X88532455Y-133840228D02*
X88456265Y-133802133D01*
X88456265Y-133802133D02*
X88418169Y-133725942D01*
X88418169Y-133725942D02*
X88418169Y-133687847D01*
X88418169Y-133687847D02*
X88456265Y-133611657D01*
X88456265Y-133611657D02*
X88532455Y-133573561D01*
X88532455Y-133573561D02*
X88646741Y-133573561D01*
X88646741Y-133573561D02*
X88722931Y-133611657D01*
X89446741Y-134068800D02*
X89370550Y-134106895D01*
X89370550Y-134106895D02*
X89218169Y-134106895D01*
X89218169Y-134106895D02*
X89141979Y-134068800D01*
X89141979Y-134068800D02*
X89103884Y-134030704D01*
X89103884Y-134030704D02*
X89065788Y-133954514D01*
X89065788Y-133954514D02*
X89065788Y-133725942D01*
X89065788Y-133725942D02*
X89103884Y-133649752D01*
X89103884Y-133649752D02*
X89141979Y-133611657D01*
X89141979Y-133611657D02*
X89218169Y-133573561D01*
X89218169Y-133573561D02*
X89370550Y-133573561D01*
X89370550Y-133573561D02*
X89446741Y-133611657D01*
X89789598Y-134106895D02*
X89789598Y-133306895D01*
X89865788Y-133802133D02*
X90094360Y-134106895D01*
X90094360Y-133573561D02*
X89789598Y-133878323D01*
D12*
%TO.C,REF\u002A\u002A*%
X80950000Y-17170000D02*
X82280000Y-17170000D01*
X80950000Y-18500000D02*
X80950000Y-17170000D01*
X83550000Y-17170000D02*
X93770000Y-17170000D01*
X83550000Y-19830000D02*
X83550000Y-17170000D01*
X83550000Y-19830000D02*
X93770000Y-19830000D01*
X93770000Y-19830000D02*
X93770000Y-17170000D01*
D11*
X93350210Y-56360000D02*
G75*
G02*
X81449790Y-56360000I-5950210J0D01*
G01*
X81449790Y-56360000D02*
G75*
G02*
X93350210Y-56360000I5950210J0D01*
G01*
D12*
X80820000Y-172945000D02*
X82150000Y-172945000D01*
X80820000Y-174275000D02*
X80820000Y-172945000D01*
X83420000Y-172945000D02*
X93640000Y-172945000D01*
X83420000Y-175605000D02*
X83420000Y-172945000D01*
X83420000Y-175605000D02*
X93640000Y-175605000D01*
X93640000Y-175605000D02*
X93640000Y-172945000D01*
D11*
X93350210Y-136360000D02*
G75*
G02*
X81449790Y-136360000I-5950210J0D01*
G01*
X81449790Y-136360000D02*
G75*
G02*
X93350210Y-136360000I5950210J0D01*
G01*
%TD*%
M02*
